<svg id="Camada_1" data-name="Camada 1" xmlns="http://www.w3.org/2000/svg" xmlns:xlink="http://www.w3.org/1999/xlink" viewBox="0 0 1300 600"><defs><style>.cls-1{fill:url(#Gradiente_sem_nome_14);}.cls-2{fill:url(#Gradiente_sem_nome_14-2);}.cls-3{fill:#010d33;}</style><linearGradient id="Gradiente_sem_nome_14" x1="143.12" y1="360.19" x2="271.24" y2="307.12" gradientUnits="userSpaceOnUse"><stop offset="0" stop-color="#02eefd"/><stop offset="1" stop-color="#033fff"/></linearGradient><linearGradient id="Gradiente_sem_nome_14-2" x1="134.13" y1="292.88" x2="262.25" y2="239.81" xlink:href="#Gradiente_sem_nome_14"/></defs><title>LOGO_HORIZONTAL_INFLUENCIFY</title><polygon class="cls-1" points="222.6 268.82 196.77 331.18 182.77 331.18 156.94 393.55 203.71 393.55 255.38 268.82 222.6 268.82"/><polygon class="cls-2" points="222.6 268.82 248.44 206.45 201.66 206.45 150 331.18 182.77 331.18 208.6 268.82 222.6 268.82"/><rect class="cls-3" x="317.82" y="261.81" width="20.72" height="78.79"/><path class="cls-3" d="M362.27,340.6V261.81H383V268a32.85,32.85,0,0,1,10.06-5.75,35.62,35.62,0,0,1,12-2q13.62,0,22.38,8.77t8.78,22.54v49H415.51v-46q0-7.41-4.46-11.95t-11.88-4.53a20.88,20.88,0,0,0-9.3,2A18.34,18.34,0,0,0,383,286V340.6Z"/><path class="cls-3" d="M451,261.81h17.55v-7.56q0-13.16,7.71-20.26t22.23-7.11a58,58,0,0,1,6.5.38,45.41,45.41,0,0,1,5.75,1v17.39q-2.88-.6-5.07-.9a34,34,0,0,0-4.61-.31q-5.89,0-8.85,2.58c-2,1.71-2.95,4.28-2.95,7.71v7.1h21.48v17.4H489.3V340.6H468.59V279.21H451Z"/><path class="cls-3" d="M550,230.21V340.6H529.23V234.74Z"/><path class="cls-3" d="M593.8,261.81v45.83q0,7.56,4.46,12.09t11.87,4.54a21.17,21.17,0,0,0,9.45-2,18.26,18.26,0,0,0,6.88-5.82v-54.6h20.72V340.6H626.46v-6.35a33.72,33.72,0,0,1-10.13,5.82,35,35,0,0,1-12.1,2.05q-13.61,0-22.38-8.85t-8.77-22.61V261.81Z"/><path class="cls-3" d="M741.55,330.77a47.4,47.4,0,0,1-31.91,11.35,43.76,43.76,0,0,1-16.71-3.18,42.17,42.17,0,0,1-13.46-8.62,39.63,39.63,0,0,1-8.93-12.93,40.11,40.11,0,0,1-3.25-16.1,41.42,41.42,0,0,1,3.1-16,40.41,40.41,0,0,1,8.55-13,39.94,39.94,0,0,1,12.93-8.69,40.34,40.34,0,0,1,16-3.18,37.1,37.1,0,0,1,15.5,3.26,38.29,38.29,0,0,1,12.4,8.84,40.34,40.34,0,0,1,8.17,13.38,47.44,47.44,0,0,1,3,16.87v5.44H688.16a22.11,22.11,0,0,0,8.17,11.95,23,23,0,0,0,14.21,4.53,27.85,27.85,0,0,0,9.68-1.66,22,22,0,0,0,7.72-4.69Zm-34.18-53.23a18.46,18.46,0,0,0-12.25,4.31A22.21,22.21,0,0,0,688,293.42h38.56A22.8,22.8,0,0,0,719.39,282,18,18,0,0,0,707.37,277.54Z"/><path class="cls-3" d="M767.1,340.6V261.81h20.72V268a32.74,32.74,0,0,1,10.06-5.75,35.57,35.57,0,0,1,12-2q13.61,0,22.38,8.77t8.77,22.54v49H820.33v-46q0-7.41-4.46-11.95T804,278.15a20.82,20.82,0,0,0-9.3,2,18.34,18.34,0,0,0-6.88,5.82V340.6Z"/><path class="cls-3" d="M902.9,324a23.52,23.52,0,0,0,9.91-2.12,28.58,28.58,0,0,0,8.84-6.65l12.4,12.85a42.21,42.21,0,0,1-14.51,10.36A43.38,43.38,0,0,1,902,342.12a41.85,41.85,0,0,1-16.25-3.18,40.79,40.79,0,0,1-13.16-8.62,39.62,39.62,0,0,1-8.69-12.93,41.45,41.45,0,0,1,8.69-45.22,40.16,40.16,0,0,1,13.16-8.69A41.85,41.85,0,0,1,902,260.3,45.15,45.15,0,0,1,920,264a41.81,41.81,0,0,1,14.67,10.36L922,287.83a30.94,30.94,0,0,0-9.08-7.11,23,23,0,0,0-10.43-2.42A19.67,19.67,0,0,0,887.4,285a23.25,23.25,0,0,0-6.12,16.34,22.4,22.4,0,0,0,6.27,16.18A20.54,20.54,0,0,0,902.9,324Z"/><rect class="cls-3" x="952.35" y="261.81" width="20.72" height="78.79"/><path class="cls-3" d="M991.37,261.81h17.54v-7.56q0-13.16,7.71-20.26t22.23-7.11a58,58,0,0,1,6.5.38,45.1,45.1,0,0,1,5.75,1v17.39q-2.88-.6-5.07-.9a34,34,0,0,0-4.61-.31q-5.89,0-8.84,2.58t-2.95,7.71v7.1h21.47v17.4h-21.47V340.6h-20.72V279.21H991.37Z"/><path class="cls-3" d="M1092.38,344.23l1.21-2.87-30.7-79.55h22.84l19.51,53.69,22.38-53.69H1150l-36.29,85q-6.06,14.22-14.07,20.27t-20.87,6.05c-1.81,0-3.55-.08-5.21-.23a21,21,0,0,1-4-.68V354.36a27.45,27.45,0,0,0,3.17.46c1.11.1,2.47.15,4.09.15a16,16,0,0,0,9.45-2.72A18.35,18.35,0,0,0,1092.38,344.23Z"/><polygon class="cls-3" points="973 254.21 952.28 254.21 952.27 238.02 973 233.49 973 254.21"/><polygon class="cls-3" points="338.46 254.21 317.74 254.21 317.74 238.02 338.46 233.49 338.46 254.21"/></svg>