<svg id="Layer_1" data-name="Layer 1" xmlns="http://www.w3.org/2000/svg" viewBox="0 0 88 21"><defs><style>.cls-1{fill:#ffdfdf;}.cls-2{fill:#e31d1d;}</style></defs><rect class="cls-1" width="88" height="21" rx="10.5"/><path class="cls-2" d="M15,9.79c0-.6,0-1.09,0-1.57h.94l.06,1h0A2.12,2.12,0,0,1,17.9,8.09c.8,0,2.05.47,2.05,2.47V14H18.89V10.68c0-.94-.34-1.72-1.34-1.72A1.5,1.5,0,0,0,16.14,10a1.44,1.44,0,0,0-.08.49V14H15Z"/><path class="cls-2" d="M26.92,11.07A2.83,2.83,0,0,1,24,14.15a2.76,2.76,0,0,1-2.78-3,2.83,2.83,0,0,1,2.88-3.08A2.75,2.75,0,0,1,26.92,11.07Zm-4.6.06c0,1.27.73,2.23,1.76,2.23s1.76-.95,1.76-2.25c0-1-.49-2.23-1.74-2.23S22.32,10,22.32,11.13Z"/><path class="cls-2" d="M29.53,6.55V8.22H31V9H29.53v3.13c0,.72.2,1.13.79,1.13a2.68,2.68,0,0,0,.61-.07L31,14a2.73,2.73,0,0,1-.94.14,1.47,1.47,0,0,1-1.14-.44,2.15,2.15,0,0,1-.4-1.51V9h-.9v-.8h.9V6.83Z"/><path class="cls-2" d="M35.36,11.31a1.86,1.86,0,0,0,2,2A4,4,0,0,0,39,13l.18.75a4.67,4.67,0,0,1-1.93.36,2.69,2.69,0,0,1-2.86-2.92c0-1.76,1-3.13,2.72-3.13a2.45,2.45,0,0,1,2.4,2.73,4.68,4.68,0,0,1,0,.49Zm3.09-.75A1.49,1.49,0,0,0,37,8.84a1.75,1.75,0,0,0-1.62,1.72Z"/><path class="cls-2" d="M40.78,5.51h1.06V14H40.78Z"/><path class="cls-2" d="M44.2,11.31a1.87,1.87,0,0,0,2,2A3.92,3.92,0,0,0,47.8,13l.18.75a4.67,4.67,0,0,1-1.93.36,2.69,2.69,0,0,1-2.85-2.92c0-1.76,1-3.13,2.72-3.13a2.46,2.46,0,0,1,2.4,2.73,4.15,4.15,0,0,1,0,.49Zm3.1-.75a1.51,1.51,0,0,0-1.46-1.72,1.74,1.74,0,0,0-1.62,1.72Z"/><path class="cls-2" d="M54.63,8.22c0,.42-.05.88-.05,1.59v3.37a3.31,3.31,0,0,1-.83,2.65,3.06,3.06,0,0,1-2.11.7,3.78,3.78,0,0,1-1.93-.48l.27-.81a3.25,3.25,0,0,0,1.7.46c1.08,0,1.87-.56,1.87-2V13h0a2.08,2.08,0,0,1-1.85,1,2.6,2.6,0,0,1-2.47-2.83,2.78,2.78,0,0,1,2.61-3.08,1.92,1.92,0,0,1,1.81,1h0l.05-.87Zm-1.09,2.29a1.44,1.44,0,0,0-.06-.48A1.53,1.53,0,0,0,52,8.91c-1,0-1.72.85-1.72,2.2,0,1.14.57,2.08,1.71,2.08a1.52,1.52,0,0,0,1.46-1.07,1.93,1.93,0,0,0,.09-.57Z"/><path class="cls-2" d="M57.44,6.59a.62.62,0,0,1-.67.64.63.63,0,0,1-.64-.64.64.64,0,0,1,.66-.66A.62.62,0,0,1,57.44,6.59ZM56.26,14V8.22h1.06V14Z"/><path class="cls-2" d="M59,14c0-.39,0-1,0-1.5v-7h1V9.15h0a2.15,2.15,0,0,1,2-1.06c1.44,0,2.46,1.19,2.44,3,0,2.07-1.3,3.1-2.6,3.1A2.06,2.06,0,0,1,60,13.06h0l0,1Zm1.09-2.32a2.32,2.32,0,0,0,0,.38,1.64,1.64,0,0,0,1.59,1.23c1.1,0,1.76-.9,1.76-2.23,0-1.16-.6-2.16-1.73-2.16a1.7,1.7,0,0,0-1.61,1.3,2.34,2.34,0,0,0-.06.43Z"/><path class="cls-2" d="M65.9,5.51h1V14h-1Z"/><path class="cls-2" d="M69.32,11.31a1.86,1.86,0,0,0,2,2,4,4,0,0,0,1.61-.3l.18.75a4.71,4.71,0,0,1-1.93.36,2.69,2.69,0,0,1-2.86-2.92c0-1.76,1-3.13,2.72-3.13a2.45,2.45,0,0,1,2.4,2.73,4.68,4.68,0,0,1,0,.49Zm3.09-.75A1.5,1.5,0,0,0,71,8.84a1.75,1.75,0,0,0-1.62,1.72Z"/></svg>