<svg width="32" height="22" viewBox="0 0 32 22" fill="none" xmlns="http://www.w3.org/2000/svg">
<path d="M2.83319 12.6406V12.6485C2.78898 12.8152 2.71234 12.9716 2.60765 13.1087C2.50297 13.2458 2.37229 13.3609 2.22309 13.4474C2.07389 13.534 1.90909 13.5903 1.73812 13.6131C1.56715 13.6359 1.39336 13.6248 1.22669 13.5804C0.0953111 13.2811 0.294811 11.9765 0.294811 11.9765L0.339436 11.8138C0.339436 11.8138 0.407686 11.5933 0.462811 11.4331C1.13644 9.5444 2.12811 7.78479 3.39494 6.23038C5.75481 3.35863 9.71594 0.5 16.0002 0.5C22.2871 0.5 26.2482 3.35863 28.6028 6.23038C29.8696 7.78479 30.8613 9.5444 31.5349 11.4331C31.5915 11.5954 31.644 11.7591 31.6924 11.924L31.7003 11.9581L31.7056 11.9686V11.9739C31.7888 12.3079 31.7375 12.6614 31.5626 12.9579C31.3877 13.2545 31.1033 13.4705 30.7707 13.5593C30.4381 13.6482 30.0838 13.6028 29.7844 13.4329C29.4849 13.263 29.2642 12.9822 29.1698 12.6511L29.1672 12.6406L29.1462 12.575C28.9972 12.1104 28.8219 11.6547 28.6212 11.21C28.086 10.0204 27.3977 8.90583 26.5737 7.89462C24.6233 5.519 21.3657 3.125 16.0002 3.125C10.6347 3.125 7.37444 5.519 5.42669 7.89462C4.35704 9.2084 3.51825 10.6943 2.94606 12.2889C2.91363 12.3837 2.883 12.4791 2.85419 12.575L2.83319 12.6406Z" fill="#FF9933"/>
<path d="M9.4375 14.9375C9.4375 13.197 10.1289 11.5278 11.3596 10.2971C12.5903 9.0664 14.2595 8.375 16 8.375C17.7405 8.375 19.4097 9.0664 20.6404 10.2971C21.8711 11.5278 22.5625 13.197 22.5625 14.9375C22.5625 16.678 21.8711 18.3472 20.6404 19.5779C19.4097 20.8086 17.7405 21.5 16 21.5C14.2595 21.5 12.5903 20.8086 11.3596 19.5779C10.1289 18.3472 9.4375 16.678 9.4375 14.9375Z" fill="#FF9933"/>
</svg>
