<svg id="Layer_1" data-name="Layer 1" xmlns="http://www.w3.org/2000/svg" viewBox="0 0 16.58 24.91"><path d="M13.53,9.37h.29c1.93,0,3.86,0,5.79,0a1.06,1.06,0,0,1,1,.54,1.08,1.08,0,0,1-.08,1.17L12.4,24.36a1.1,1.1,0,0,1-1.14.58,1,1,0,0,1-.83-.9,2,2,0,0,1,0-.54c.22-1.87.45-3.74.67-5.62.08-.74.17-1.48.26-2.26h-6a1.07,1.07,0,0,1-1-1.71L12.61.62a1.05,1.05,0,0,1,2,.6l-1.05,8A1.21,1.21,0,0,0,13.53,9.37Zm-.48,9.86,0,0,4.78-7.79H12.41A1,1,0,0,1,11.3,10.3c.11-.91.23-1.81.35-2.71.07-.56.15-1.13.22-1.69l0,0-4.7,7.66h5.33a1,1,0,0,1,1.1.77,2.08,2.08,0,0,1,0,.61C13.4,16.36,13.22,17.79,13.05,19.23Z" transform="translate(-4.21 -0.04)"/></svg>