<svg width="34" height="40" viewBox="0 0 34 40" fill="none" xmlns="http://www.w3.org/2000/svg">
<path d="M21.8002 0.799997C22.9149 0.799662 24.0076 1.10985 24.9559 1.69578C25.9041 2.2817 26.6704 3.1202 27.1688 4.11725C27.6672 5.1143 27.878 6.23048 27.7776 7.34062C27.6772 8.45077 27.2694 9.51099 26.6002 10.4024L31.4002 10.4C32.0367 10.4 32.6472 10.6529 33.0973 11.1029C33.5473 11.553 33.8002 12.1635 33.8002 12.8V20C33.8002 20.6365 33.5473 21.247 33.0973 21.6971C32.6472 22.1471 32.0367 22.4 31.4002 22.4V33.2C31.4002 34.7913 30.7681 36.3174 29.6428 37.4426C28.5176 38.5679 26.9915 39.2 25.4002 39.2H8.6002C7.0089 39.2 5.48277 38.5679 4.35755 37.4426C3.23234 36.3174 2.6002 34.7913 2.6002 33.2V22.4C1.96368 22.4 1.35323 22.1471 0.903139 21.6971C0.453052 21.247 0.200195 20.6365 0.200195 20V12.8C0.200195 12.1635 0.453052 11.553 0.903139 11.1029C1.35323 10.6529 1.96368 10.4 2.6002 10.4L7.4002 10.4024C6.92744 9.77205 6.58346 9.05476 6.38791 8.29148C6.19236 7.5282 6.14907 6.73388 6.2605 5.95387C6.37193 5.17386 6.6359 4.42343 7.03735 3.74543C7.4388 3.06744 7.96985 2.47515 8.6002 2.0024C9.23054 1.52964 9.94783 1.18566 10.7111 0.990114C11.4744 0.794565 12.2687 0.751269 13.0487 0.862699C13.8287 0.97413 14.5792 1.2381 15.2572 1.63955C15.9352 2.041 16.5274 2.57205 17.0002 3.2024C17.5575 2.45539 18.2819 1.8491 19.1153 1.43196C19.9487 1.01482 20.8682 0.798403 21.8002 0.799997ZM15.8002 22.4H5.0002V33.2C5.0002 34.1548 5.37948 35.0704 6.05461 35.7456C6.72974 36.4207 7.64542 36.8 8.6002 36.8H15.8002V22.4ZM29.0002 22.4H18.2002V36.8H25.4002C26.355 36.8 27.2707 36.4207 27.9458 35.7456C28.6209 35.0704 29.0002 34.1548 29.0002 33.2V22.4ZM15.8002 12.8H2.6002V20H15.8002V12.8ZM31.4002 12.8H18.2002V20H31.4002V12.8ZM21.8002 3.2C20.8454 3.2 19.9297 3.57928 19.2546 4.25441C18.5795 4.92954 18.2002 5.84522 18.2002 6.8V10.4H21.8002C22.755 10.4 23.6707 10.0207 24.3458 9.34558C25.0209 8.67045 25.4002 7.75478 25.4002 6.8C25.4002 5.84522 25.0209 4.92954 24.3458 4.25441C23.6707 3.57928 22.755 3.2 21.8002 3.2ZM12.2002 3.2C11.2757 3.20045 10.3868 3.55658 9.71767 4.19458C9.04857 4.83258 8.65057 5.70354 8.60614 6.62699C8.56171 7.55044 8.87426 8.45559 9.47902 9.15488C10.0838 9.85417 10.9344 10.294 11.8546 10.3832L12.2002 10.4H15.8002V6.8L15.7834 6.4544C15.6975 5.56361 15.2829 4.73676 14.6204 4.13508C13.9579 3.5334 13.0951 3.20004 12.2002 3.2Z" fill="#033FFF"/>
</svg>
