<svg width="35" height="31" viewBox="0 0 35 31" fill="none" xmlns="http://www.w3.org/2000/svg">
<path d="M32.2164 0.244745C31.7951 0.2754 31.3815 0.374248 30.9918 0.537433H30.9866C30.6125 0.685745 28.8341 1.43387 26.1303 2.56787L16.4415 6.64843C9.48914 9.57531 2.65495 12.4576 2.65495 12.4576L2.73633 12.4261C2.73633 12.4261 2.26514 12.5809 1.77295 12.9182C1.46888 13.1117 1.20723 13.3649 1.00383 13.6624C0.762327 14.0168 0.568077 14.5589 0.640265 15.1193C0.75839 16.0669 1.37264 16.6352 1.81364 16.9489C2.25989 17.2666 2.68514 17.4149 2.68514 17.4149H2.69564L9.10458 19.5739C9.39202 20.4966 11.0576 25.9724 11.4579 27.2337C11.6941 27.9871 11.9238 28.4582 12.2113 28.8179C12.3504 29.0016 12.5131 29.1552 12.7087 29.2786C12.8104 29.3377 12.9188 29.3844 13.0316 29.4177L12.966 29.4019C12.9856 29.4072 13.0014 29.4229 13.0158 29.4282C13.0683 29.4426 13.1038 29.4479 13.1707 29.4584C14.1853 29.7655 15.0003 29.1355 15.0003 29.1355L15.0463 29.0987L18.8302 25.6534L25.1722 30.5189L25.3166 30.5806C26.6383 31.1607 27.977 30.8378 28.6845 30.2682C29.3971 29.6946 29.6741 28.9609 29.6741 28.9609L29.72 28.8428L34.6209 3.736C34.76 3.1165 34.7955 2.53637 34.6419 1.97331C34.4835 1.40345 34.1179 0.913342 33.6168 0.59912C33.1961 0.343334 32.7082 0.219872 32.2164 0.244745ZM32.0838 2.93537C32.0786 3.01806 32.0943 3.00887 32.0576 3.16768V3.18212L27.2026 28.0277C27.1816 28.0632 27.1462 28.1406 27.0491 28.2181C26.9467 28.2994 26.8653 28.3506 26.4388 28.1813L18.6819 22.2344L13.9963 26.5052L14.9806 20.2184L27.6541 8.40587C28.1765 7.92025 28.002 7.81787 28.002 7.81787C28.0387 7.22199 27.2131 7.64331 27.2131 7.64331L11.2321 17.5435L11.2269 17.5172L3.56714 14.9382V14.9329L3.54745 14.929C3.56088 14.9245 3.57403 14.9193 3.58683 14.9132L3.62883 14.8922L3.66952 14.8778C3.66952 14.8778 10.509 11.9956 17.4613 9.06868C20.942 7.60262 24.449 6.12606 27.1462 4.98681C29.8434 3.85412 31.8371 3.02331 31.95 2.97868C32.0576 2.93668 32.0064 2.93668 32.0838 2.93668V2.93537Z" fill="#010D33"/>
</svg>
