<svg width="40" height="30" viewBox="0 0 40 30" fill="none" xmlns="http://www.w3.org/2000/svg">
<path d="M12.7998 12.6C12.7998 11.327 13.3055 10.1061 14.2057 9.20591C15.1059 8.30573 16.3268 7.80002 17.5998 7.80002C18.8728 7.80002 20.0937 8.30573 20.9939 9.20591C21.8941 10.1061 22.3998 11.327 22.3998 12.6C22.3998 13.8731 21.8941 15.094 20.9939 15.9941C20.0937 16.8943 18.8728 17.4 17.5998 17.4C16.3268 17.4 15.1059 16.8943 14.2057 15.9941C13.3055 15.094 12.7998 13.8731 12.7998 12.6ZM17.5998 10.2C16.9633 10.2 16.3528 10.4529 15.9027 10.903C15.4527 11.353 15.1998 11.9635 15.1998 12.6C15.1998 13.2365 15.4527 13.847 15.9027 14.2971C16.3528 14.7472 16.9633 15 17.5998 15C18.2363 15 18.8468 14.7472 19.2969 14.2971C19.7469 13.847 19.9998 13.2365 19.9998 12.6C19.9998 11.9635 19.7469 11.353 19.2969 10.903C18.8468 10.4529 18.2363 10.2 17.5998 10.2Z" fill="#02EEFD"/>
<path d="M4.3998 0.600006C3.44503 0.600006 2.52935 0.97929 1.85422 1.65442C1.17909 2.32955 0.799805 3.24523 0.799805 4.20001V21C0.799805 21.9548 1.17909 22.8705 1.85422 23.5456C2.52935 24.2207 3.44503 24.6 4.3998 24.6H30.7998C31.7546 24.6 32.6703 24.2207 33.3454 23.5456C34.0205 22.8705 34.3998 21.9548 34.3998 21V4.20001C34.3998 3.24523 34.0205 2.32955 33.3454 1.65442C32.6703 0.97929 31.7546 0.600006 30.7998 0.600006H4.3998ZM3.1998 4.20001C3.1998 3.88175 3.32623 3.57652 3.55128 3.35148C3.77632 3.12643 4.08155 3.00001 4.3998 3.00001H7.9998V5.40001C7.9998 6.03653 7.74695 6.64698 7.29686 7.09706C6.84677 7.54715 6.23632 7.80001 5.5998 7.80001H3.1998V4.20001ZM3.1998 10.2H5.5998C6.87284 10.2 8.09374 9.69429 8.99392 8.79412C9.89409 7.89394 10.3998 6.67305 10.3998 5.40001V3.00001H24.7998V5.40001C24.7998 6.67305 25.3055 7.89394 26.2057 8.79412C27.1059 9.69429 28.3268 10.2 29.5998 10.2H31.9998V15H29.5998C28.3268 15 27.1059 15.5057 26.2057 16.4059C25.3055 17.3061 24.7998 18.527 24.7998 19.8V22.2H10.3998V19.8C10.3998 18.527 9.89409 17.3061 8.99392 16.4059C8.09374 15.5057 6.87284 15 5.5998 15H3.1998V10.2ZM27.1998 3.00001H30.7998C31.1181 3.00001 31.4233 3.12643 31.6483 3.35148C31.8734 3.57652 31.9998 3.88175 31.9998 4.20001V7.80001H29.5998C28.9633 7.80001 28.3528 7.54715 27.9028 7.09706C27.4527 6.64698 27.1998 6.03653 27.1998 5.40001V3.00001ZM31.9998 17.4V21C31.9998 21.3183 31.8734 21.6235 31.6483 21.8485C31.4233 22.0736 31.1181 22.2 30.7998 22.2H27.1998V19.8C27.1998 19.1635 27.4527 18.553 27.9028 18.103C28.3528 17.6529 28.9633 17.4 29.5998 17.4H31.9998ZM7.9998 22.2H4.3998C4.08155 22.2 3.77632 22.0736 3.55128 21.8485C3.32623 21.6235 3.1998 21.3183 3.1998 21V17.4H5.5998C6.23632 17.4 6.84677 17.6529 7.29686 18.103C7.74695 18.553 7.9998 19.1635 7.9998 19.8V22.2Z" fill="#02EEFD"/>
<path d="M36.7997 21C36.7997 22.5913 36.1676 24.1174 35.0424 25.2426C33.9171 26.3679 32.391 27 30.7997 27H5.80371C6.05197 27.7022 6.51191 28.3101 7.12013 28.7399C7.72836 29.1698 8.45493 29.4004 9.19971 29.4H30.7997C33.0275 29.4 35.1641 28.515 36.7394 26.9397C38.3147 25.3644 39.1997 23.2278 39.1997 21V9C39.2001 8.25522 38.9695 7.52865 38.5396 6.92043C38.1098 6.3122 37.5019 5.85226 36.7997 5.604V21Z" fill="#02EEFD"/>
</svg>
