<svg width="48" height="48" viewBox="0 0 48 48" fill="none" xmlns="http://www.w3.org/2000/svg">
<g clip-path="url(#clip0)">
<path d="M38.0737 34.8488L30.9599 27.7426C36.1274 20.9888 35.6437 11.2951 29.4637 5.11508C22.7362 -1.60867 11.8312 -1.60867 5.09994 5.11508C-1.62381 11.8426 -1.62381 22.7513 5.09994 29.4751C11.2799 35.6513 20.9774 36.1426 27.7312 30.9713L34.8449 38.0813L38.0737 34.8488Z" fill="#78A3AD"/>
<path d="M7.66512 26.9136C2.35512 21.5999 2.35512 12.9824 7.66512 7.67238C12.9789 2.35863 21.5851 2.36238 26.9026 7.67238C32.2126 12.9824 32.2126 21.5924 26.9026 26.9136C21.5814 32.2236 12.9751 32.2236 7.66512 26.9136Z" fill="white"/>
<path d="M47.4487 41.4488L37.8749 31.8526C35.4374 29.4151 29.5574 35.5163 31.8862 37.8413L41.4599 47.4376C42.4499 48.4238 44.5949 47.8838 46.2412 46.2263C47.8949 44.5763 48.4349 42.4351 47.4487 41.4488Z" fill="#F79329"/>
<path d="M41.7114 47.1637C41.7789 46.3987 42.2776 45.4949 42.6001 44.9849C43.5639 43.4587 44.7751 42.1949 46.5826 41.7149C48.4201 41.2237 48.6039 42.6074 48.1651 44.0099C47.6364 45.7012 46.5826 46.9724 45.0301 47.8612C44.6664 48.0712 44.1826 48.3674 43.7626 48.4312C42.7351 48.5774 41.6026 48.4462 41.7114 47.1637Z" fill="#855C52"/>
</g>
<defs>
<clipPath id="clip0">
<rect width="48" height="48" fill="white"/>
</clipPath>
</defs>
</svg>
