<svg width="48" height="48" viewBox="0 0 48 48" fill="none" xmlns="http://www.w3.org/2000/svg">
<path d="M23.9212 3.23999C0.555 3.23999 0 29.4375 0 34.6237C0 39.81 10.71 44.01 23.9212 44.01C37.1362 44.01 47.8425 39.8062 47.8425 34.6237C47.8425 29.4375 47.2912 3.23999 23.9212 3.23999Z" fill="#FCC21B"/>
<path d="M11.6098 20.4186C11.4699 20.6495 11.2443 20.8158 10.9823 20.8812C10.7203 20.9465 10.443 20.9056 10.211 20.7673C9.9796 20.6298 9.81188 20.4065 9.74444 20.1458C9.677 19.8852 9.71533 19.6085 9.85105 19.3761C9.91855 19.2598 11.576 16.5186 15.2398 16.5186C18.9073 16.5186 20.5648 19.2598 20.636 19.3761C20.7266 19.5318 20.7746 19.7087 20.7751 19.8888C20.7756 20.069 20.7286 20.2461 20.6389 20.4024C20.5492 20.5586 20.4199 20.6885 20.264 20.7789C20.1081 20.8693 19.9312 20.917 19.751 20.9173C19.406 20.9173 19.0648 20.7411 18.8735 20.4223C18.8248 20.3398 17.7035 18.5623 15.2398 18.5623C12.776 18.5586 11.6623 20.3398 11.6098 20.4186Z" fill="#2F2F2F"/>
<path d="M37.8747 20.7711C37.7134 20.8686 37.5334 20.9136 37.3609 20.9136C37.0084 20.9136 36.6672 20.7299 36.4759 20.4111C36.4347 20.3361 35.3209 18.5586 32.8534 18.5586C30.3447 18.5586 29.2309 20.3924 29.2197 20.4111C29.0791 20.6386 28.855 20.802 28.5954 20.866C28.3358 20.9301 28.0614 20.8898 27.8311 20.7538C27.6009 20.6179 27.4331 20.397 27.3639 20.1387C27.2947 19.8804 27.3295 19.6053 27.4609 19.3724C27.5284 19.2561 29.1859 16.5149 32.8534 16.5149C36.5172 16.5149 38.1709 19.2561 38.2384 19.3724C38.5234 19.8599 38.3584 20.4861 37.8747 20.7711Z" fill="#2F2F2F"/>
<path d="M44.6963 25.7474C44.0663 27.4349 42.7726 28.3574 41.7751 28.5187C40.6538 28.6987 39.7051 28.4024 39.0976 27.6862C38.3288 26.7787 38.2201 25.3499 38.7826 23.6624C39.8063 20.6287 40.1663 15.0824 40.1738 15.0299C40.1888 14.8162 40.3201 14.6362 40.5263 14.5762C40.7251 14.5049 40.9426 14.5762 41.0813 14.7374C45.7201 20.3324 45.3413 24.0374 44.6963 25.7474Z" fill="white"/>
<path d="M36.1726 25.5975C35.0138 24.8137 33.5551 25.3312 32.2651 25.5975C28.6726 26.34 25.5151 26.37 24.0001 26.37C22.4851 26.37 19.3276 26.34 15.7351 25.5975C14.4451 25.3312 12.9863 24.8137 11.8276 25.5975C10.3576 26.5912 11.4413 30.1537 13.7551 32.5612C15.1538 34.0162 18.4838 36.84 24.0001 36.84C29.5163 36.84 32.8463 34.0162 34.2451 32.5612C36.5588 30.1537 37.6388 26.5912 36.1726 25.5975Z" fill="#ED6C30"/>
</svg>
