<svg width="48" height="48" viewBox="0 0 48 48" fill="none" xmlns="http://www.w3.org/2000/svg">
<path d="M25.8639 11.8725C25.6239 11.6887 25.3464 11.5537 25.0239 11.4787C24.7052 11.4075 24.3677 11.3662 24.0039 11.3662C23.6402 11.3662 23.2989 11.4037 22.9764 11.4787C22.6502 11.55 22.3727 11.685 22.1289 11.8725C21.8889 12.0562 21.7014 12.3 21.5627 12.6037C21.4277 12.9075 21.3564 13.29 21.3564 13.7437C21.3564 14.19 21.4277 14.565 21.5627 14.8762C21.7014 15.18 21.8889 15.4312 22.1289 15.615C22.3689 15.7987 22.6502 15.9337 22.9764 16.0125C23.2989 16.0912 23.6402 16.1325 24.0039 16.1325C24.3639 16.1325 24.7052 16.0912 25.0239 16.0125C25.3464 15.9337 25.6239 15.7987 25.8639 15.615C26.1039 15.4312 26.2952 15.18 26.4377 14.8762C26.5802 14.565 26.6514 14.19 26.6514 13.7437C26.6514 13.2862 26.5802 12.9037 26.4377 12.6037C26.2952 12.3 26.1039 12.0562 25.8639 11.8725Z" fill="#40C0E7"/>
<path d="M21.5698 18.3525H26.4336V36.1688H21.5698V18.3525Z" fill="#40C0E7"/>
<path d="M24.0001 0.153809C10.8488 0.153809 0.153809 10.8488 0.153809 24.0001C0.153809 37.1476 10.8488 47.8463 23.9963 47.8463C37.1438 47.8463 47.8426 37.1513 47.8426 24.0001C47.8463 10.8488 37.1476 0.153809 24.0001 0.153809ZM24.0001 44.4038C12.7501 44.4038 3.60006 35.2501 3.60006 24.0001C3.60006 12.7501 12.7501 3.59631 24.0001 3.59631C35.2501 3.59631 44.4038 12.7501 44.4038 24.0038C44.4001 35.2501 35.2463 44.4038 24.0001 44.4038Z" fill="#40C0E7"/>
</svg>
