<svg width="48" height="48" viewBox="0 0 48 48" fill="none" xmlns="http://www.w3.org/2000/svg">
<path d="M10.7476 24.3374H39.4388V31.5374H10.7476V24.3374Z" fill="#2F2F2F"/>
<path d="M15.5361 35.6851H32.6211V42.8851H15.5361V35.6851Z" fill="#2F2F2F"/>
<path d="M46.9049 31.9612L43.9612 31.4287C43.9874 30.7237 43.9762 30.0112 43.9312 29.2987L46.9574 28.8487C47.1675 28.8169 47.3565 28.7031 47.4829 28.5324C47.6094 28.3616 47.6632 28.1477 47.6324 27.9375C47.6009 27.7282 47.4877 27.54 47.3176 27.4141C47.1474 27.2882 46.9343 27.2351 46.7249 27.2662L43.7399 27.7125C43.3687 25.59 42.5287 23.4862 41.2949 21.5812C41.6887 17.8237 42.4387 7.64248 39.3862 5.59123C36.9524 3.95623 31.1549 10.0275 29.2837 12.2025C28.8524 12.705 28.4587 13.1587 28.0987 13.5712C26.7937 13.3725 25.4662 13.2637 24.1424 13.2637C22.8224 13.2637 21.4949 13.3725 20.1899 13.5712C19.8262 13.1587 19.4362 12.705 19.0049 12.2025C17.1374 10.0237 11.3399 3.95623 8.90242 5.58748C5.84617 7.63873 6.60367 17.8275 6.99367 21.5812C5.75242 23.4975 4.91242 25.6162 4.54492 27.75L1.27867 27.2625C1.06906 27.2323 0.855982 27.2857 0.685473 27.4113C0.514963 27.5369 0.400718 27.7246 0.367424 27.9337C0.303674 28.3725 0.603674 28.7812 1.04242 28.845L4.35367 29.34C4.31242 30.0187 4.30117 30.7012 4.32367 31.3762L1.09492 31.9575C0.991506 31.9762 0.892785 32.0151 0.8044 32.0719C0.716015 32.1288 0.639696 32.2025 0.579802 32.2889C0.519907 32.3752 0.47761 32.4726 0.455325 32.5753C0.433041 32.678 0.431205 32.7841 0.449924 32.8875C0.484039 33.0715 0.581428 33.2379 0.725237 33.3577C0.869047 33.4776 1.05023 33.5434 1.23742 33.5437C1.28242 33.5437 1.33117 33.54 1.37992 33.5325L4.45492 32.9775C4.55617 33.7687 4.72117 34.545 4.95367 35.3025L2.49367 36.0825C2.29147 36.1469 2.12306 36.2889 2.02535 36.4773C1.92764 36.6656 1.90861 36.8851 1.97242 37.0875C2.00385 37.1879 2.05485 37.2811 2.12246 37.3618C2.19008 37.4424 2.27299 37.5089 2.36641 37.5573C2.45983 37.6058 2.56191 37.6353 2.66678 37.6441C2.77165 37.6529 2.87722 37.6409 2.97742 37.6087L5.52742 36.7987C6.26617 38.3925 7.39492 39.855 9.05242 41.0925C11.3212 42.7837 14.1449 43.9312 17.0512 44.5537C18.1574 44.79 21.0112 45.3412 24.0074 45.3412C27.0037 45.3412 30.1387 44.79 31.2449 44.5537C34.1512 43.9312 36.9749 42.7837 39.2437 41.0925C40.8749 39.8775 41.9924 38.4412 42.7312 36.8775L45.0299 37.6087C45.2323 37.6727 45.4518 37.6538 45.6403 37.5561C45.8287 37.4583 45.9707 37.2898 46.0349 37.0875C46.1662 36.6675 45.9337 36.2175 45.5137 36.0825L43.3162 35.385C43.5599 34.62 43.7287 33.8325 43.8337 33.03L46.6274 33.5325C46.6762 33.54 46.7249 33.5437 46.7699 33.5437C47.1487 33.5437 47.4862 33.2737 47.5574 32.8875C47.6287 32.4562 47.3399 32.04 46.9049 31.9612ZM12.1912 28.1962C12.1912 26.4787 13.4287 25.0875 14.9549 25.0875C16.4774 25.0875 17.7149 26.4787 17.7149 28.1962C17.7149 29.9137 16.4774 31.3087 14.9549 31.3087C13.4287 31.3087 12.1912 29.9175 12.1912 28.1962ZM31.4362 37.0275C31.3349 37.6537 31.1737 38.31 30.8887 38.8875C30.4762 39.7162 29.8274 40.455 29.0024 40.9462C27.4049 41.895 25.5412 42.1462 23.6849 42.15C20.8537 42.1575 18.0262 40.6725 17.1074 38.0737C17.0437 37.8937 16.8787 37.4062 16.8374 36.9862C16.8037 36.6187 16.8674 36.2962 17.1862 36.2737C17.6062 36.2475 17.9099 36.5775 18.2099 36.8025C18.4874 37.0087 18.8324 37.1212 19.1587 37.2337C19.5599 37.3687 19.9574 37.5112 20.3737 37.5937C20.8199 37.6837 21.3224 37.6275 21.7612 37.5337C22.3987 37.3987 22.8599 37.0462 23.3924 36.7237C23.7224 36.525 24.0937 36.3937 24.5062 36.4612C24.7499 36.5025 25.0012 36.6225 25.2187 36.7237C25.5374 36.8662 25.8412 37.08 26.1487 37.2487C26.4187 37.395 26.7112 37.4512 27.0299 37.4587C27.7349 37.4775 28.4474 37.5487 29.1337 37.3312C29.4599 37.2262 29.7674 37.1212 30.0637 36.9562C30.6337 36.6412 31.6199 35.8912 31.4362 37.0275ZM33.3374 31.3087C31.8112 31.3087 30.5737 29.9175 30.5737 28.1962C30.5737 26.4787 31.8112 25.0875 33.3374 25.0875C34.8599 25.0875 36.0974 26.4787 36.0974 28.1962C36.0974 29.9175 34.8599 31.3087 33.3374 31.3087Z" fill="#F79329"/>
</svg>
