<svg width="34" height="30" viewBox="0 0 34 30" fill="none" xmlns="http://www.w3.org/2000/svg">
<path d="M16.9727 0.278986C18.213 0.278986 19.4025 0.771708 20.2796 1.64876C21.1566 2.52581 21.6494 3.71535 21.6494 4.95569C21.6494 6.19602 21.1566 7.38556 20.2796 8.26261C19.4025 9.13966 18.213 9.63239 16.9727 9.63239C15.7321 9.63239 14.5423 9.13955 13.665 8.2623C12.7878 7.38506 12.2949 6.19525 12.2949 4.95464C12.2949 3.71402 12.7878 2.52422 13.665 1.64697C14.5423 0.769719 15.7321 0.276886 16.9727 0.276886V0.278986ZM16.9727 2.37899C16.2893 2.37899 15.6339 2.65046 15.1507 3.13368C14.6674 3.61691 14.396 4.2723 14.396 4.95569C14.396 5.63907 14.6674 6.29446 15.1507 6.77769C15.6339 7.26091 16.2893 7.53238 16.9727 7.53238C17.6563 7.53238 18.312 7.2608 18.7954 6.77738C19.2788 6.29396 19.5504 5.6383 19.5504 4.95464C19.5504 4.27097 19.2788 3.61531 18.7954 3.13189C18.312 2.64847 17.6563 2.37689 16.9727 2.37689V2.37899Z" fill="#033FFF"/>
<path d="M2.3334 18.15C2.3334 18.4285 2.22277 18.6955 2.02586 18.8924C1.82895 19.0894 1.56188 19.2 1.2834 19.2C1.00492 19.2 0.737849 19.0894 0.540936 18.8924C0.344023 18.6955 0.233398 18.4285 0.233398 18.15V12.9294C0.233466 12.415 0.422306 11.9186 0.7641 11.5342C1.10589 11.1498 1.57687 10.9043 2.0877 10.8441L2.3334 10.8294H8.1231C7.81754 11.3566 7.63117 11.9444 7.5771 12.5514L7.5603 12.9294H2.3313V18.15H2.3334Z" fill="#033FFF"/>
<path d="M32.7294 19.2C33.0079 19.2 33.275 19.0894 33.4719 18.8924C33.6688 18.6955 33.7794 18.4285 33.7794 18.15V12.9294L33.7647 12.6858C33.705 12.1746 33.4596 11.7031 33.0752 11.3609C32.6908 11.0186 32.1941 10.8295 31.6794 10.8294H25.833C26.1396 11.3607 26.337 11.9697 26.3832 12.6165L26.3937 12.9315H31.6794V18.15C31.6794 18.4285 31.79 18.6955 31.9869 18.8924C32.1839 19.0894 32.4509 19.2 32.7294 19.2Z" fill="#033FFF"/>
<path d="M22.1939 10.8294C22.709 10.829 23.2062 11.0179 23.5911 11.3602C23.9759 11.7024 24.2216 12.1742 24.2813 12.6858L24.2939 12.9294V18.15C24.2939 18.4285 24.1833 18.6955 23.9864 18.8924C23.7895 19.0894 23.5224 19.2 23.2439 19.2C22.9655 19.2 22.6984 19.0894 22.5015 18.8924C22.3046 18.6955 22.1939 18.4285 22.1939 18.15V12.9294H11.7611V18.15C11.7611 18.4285 11.6505 18.6955 11.4536 18.8924C11.2567 19.0894 10.9896 19.2 10.7111 19.2C10.4327 19.2 10.1656 19.0894 9.96867 18.8924C9.77176 18.6955 9.66113 18.4285 9.66113 18.15V12.9294C9.6612 12.415 9.85004 11.9186 10.1918 11.5342C10.5336 11.1498 11.0046 10.9043 11.5154 10.8441L11.7611 10.8294H22.1939Z" fill="#033FFF"/>
<path d="M31.4654 5.61299C31.4654 4.54725 31.0421 3.52517 30.2885 2.77158C29.5349 2.018 28.5128 1.59464 27.4471 1.59464C26.3813 1.59464 25.3592 2.018 24.6057 2.77158C23.8521 3.52517 23.4287 4.54725 23.4287 5.61299C23.4287 6.67872 23.8521 7.7008 24.6057 8.45439C25.3592 9.20797 26.3813 9.63134 27.4471 9.63134C28.5128 9.63134 29.5349 9.20797 30.2885 8.45439C31.0421 7.7008 31.4654 6.67872 31.4654 5.61299ZM25.5287 5.61299C25.5287 5.10421 25.7308 4.61627 26.0906 4.25651C26.4503 3.89675 26.9383 3.69463 27.4471 3.69463C27.9558 3.69463 28.4438 3.89675 28.8035 4.25651C29.1633 4.61627 29.3654 5.10421 29.3654 5.61299C29.3654 6.12176 29.1633 6.6097 28.8035 6.96946C28.4438 7.32922 27.9558 7.53133 27.4471 7.53133C26.9383 7.53133 26.4503 7.32922 26.0906 6.96946C25.7308 6.6097 25.5287 6.12176 25.5287 5.61299Z" fill="#033FFF"/>
<path d="M6.53397 1.59567C7.59971 1.59567 8.62179 2.01903 9.37538 2.77262C10.129 3.52621 10.5523 4.54829 10.5523 5.61402C10.5523 6.67975 10.129 7.70184 9.37538 8.45542C8.62179 9.20901 7.59971 9.63237 6.53397 9.63237C5.46824 9.63237 4.44616 9.20901 3.69257 8.45542C2.93899 7.70184 2.51563 6.67975 2.51562 5.61402C2.51562 4.54829 2.93899 3.52621 3.69257 2.77262C4.44616 2.01903 5.46824 1.59567 6.53397 1.59567ZM6.53397 3.69567C6.0252 3.69567 5.53726 3.89778 5.1775 4.25754C4.81774 4.6173 4.61562 5.10524 4.61562 5.61402C4.61562 6.1228 4.81774 6.61074 5.1775 6.9705C5.53726 7.33026 6.0252 7.53237 6.53397 7.53237C7.04275 7.53237 7.53069 7.33026 7.89045 6.9705C8.25021 6.61074 8.45232 6.1228 8.45232 5.61402C8.45232 5.10524 8.25021 4.6173 7.89045 4.25754C7.53069 3.89778 7.04275 3.69567 6.53397 3.69567Z" fill="#033FFF"/>
<path d="M1.2502 21.3C0.971718 21.3 0.704647 21.4106 0.507733 21.6075C0.31082 21.8044 0.200195 22.0715 0.200195 22.35V24.45C0.200195 25.8424 0.753319 27.1777 1.73788 28.1623C2.72245 29.1469 4.05781 29.7 5.4502 29.7H28.5502C29.9426 29.7 31.2779 29.1469 32.2625 28.1623C33.2471 27.1777 33.8002 25.8424 33.8002 24.45V22.35C33.8002 22.0715 33.6896 21.8044 33.4927 21.6075C33.2957 21.4106 33.0287 21.3 32.7502 21.3H1.2502ZM2.3002 24.45V23.4H31.7002V24.45C31.7002 25.2854 31.3683 26.0866 30.7776 26.6774C30.1868 27.2681 29.3856 27.6 28.5502 27.6H5.4502C4.61476 27.6 3.81355 27.2681 3.22281 26.6774C2.63207 26.0866 2.3002 25.2854 2.3002 24.45Z" fill="#033FFF"/>
</svg>
