<svg xmlns:xlink="http://www.w3.org/1999/xlink" width="25" height="24" viewBox="0 0 25 24" xmlns="http://www.w3.org/2000/svg" class="m-0">
        <path d="M11.0384 9.94795L10.2164 3.36715C10.1709 3.00039 10.2729 2.63058 10.4999 2.33897C10.727 2.04736 11.0605 1.8578 11.4272 1.81195L11.5136 1.80355L11.7152 1.80115C12.0651 1.80123 12.4075 1.90331 12.7003 2.09491C12.9932 2.28651 13.2238 2.55932 13.364 2.87995L16.3784 9.77035L19.6808 9.66235C20.2711 9.6422 20.8473 9.84595 21.2937 10.2327C21.7401 10.6195 22.0239 11.1608 22.088 11.7479L22.1 11.9219V11.9999C22.1 13.2923 21.0524 14.3399 19.748 14.3399L16.3796 14.2295L13.364 21.1211C13.2238 21.4418 12.9932 21.7146 12.7003 21.9062C12.4075 22.0978 12.0651 22.1999 11.7152 22.1999H11.6C11.4023 22.1999 11.2069 22.1579 11.0266 22.0766C10.8464 21.9953 10.6856 21.8766 10.5547 21.7284C10.4239 21.5802 10.3261 21.4059 10.2677 21.217C10.2094 21.0281 10.1919 20.8289 10.2164 20.6327L11.0384 14.0507L8.468 13.9655L7.3184 15.9767C7.17556 16.2268 6.96912 16.4347 6.72001 16.5793C6.47091 16.7239 6.18801 16.8 5.9 16.7999C5.58174 16.7999 5.27651 16.6735 5.05147 16.4485C4.82643 16.2234 4.7 15.9182 4.7 15.5999V13.8407L4.5068 13.8251C4.06378 13.7672 3.65693 13.5502 3.36213 13.2145C3.06733 12.8787 2.90469 12.4473 2.90454 12.0005C2.90439 11.5537 3.06675 11.1221 3.36133 10.7862C3.65591 10.4503 4.06261 10.2329 4.5056 10.1747L4.7 10.1591V8.39995C4.7 8.08169 4.82643 7.77646 5.05147 7.55142C5.27651 7.32638 5.58174 7.19995 5.9 7.19995C6.4868 7.19995 7.028 7.51435 7.3184 8.02315L8.468 10.0331L11.0384 9.94795ZM11.7152 2.99995L11.576 3.00115C11.5249 3.00773 11.4786 3.0343 11.4471 3.07501C11.4156 3.11573 11.4015 3.16728 11.408 3.21835L12.392 11.1023L7.784 11.2571L6.2768 8.61835C6.23877 8.552 6.18391 8.49686 6.11775 8.45852C6.05158 8.42017 5.97647 8.39996 5.9 8.39995V11.3183L4.7192 11.3591C4.54925 11.3591 4.38626 11.4267 4.26608 11.5468C4.14591 11.667 4.0784 11.83 4.0784 11.9999C4.0784 12.1699 4.14591 12.3329 4.26608 12.4531C4.38626 12.5732 4.54925 12.6407 4.7192 12.6407L5.9 12.6791V15.5999L5.9912 15.5903C6.05082 15.5776 6.10707 15.5524 6.15629 15.5164C6.2055 15.4804 6.24657 15.4345 6.2768 15.3815L7.784 12.7415L12.392 12.8963L11.4056 20.8043C11.4056 20.9123 11.492 20.9999 11.6 20.9999H11.7152C11.8319 20.9999 11.946 20.9658 12.0437 20.9019C12.1413 20.8379 12.2181 20.7469 12.2648 20.6399L15.6068 13.0031L19.7588 13.1411C19.9087 13.1413 20.0572 13.1119 20.1957 13.0546C20.3342 12.9973 20.4601 12.9133 20.5661 12.8072C20.6721 12.7012 20.7562 12.5754 20.8134 12.4369C20.8707 12.2983 20.9002 12.1499 20.9 11.9999V11.9615C20.895 11.8117 20.8606 11.6643 20.7986 11.5278C20.7366 11.3913 20.6483 11.2684 20.5387 11.1661C20.4291 11.0637 20.3005 10.984 20.16 10.9315C20.0196 10.879 19.8702 10.8547 19.7204 10.8599L15.6044 10.9955L12.266 3.35995C12.2193 3.253 12.1425 3.16198 12.0449 3.09804C11.9472 3.0341 11.8331 3.00001 11.7164 2.99995H11.7152Z"></path>
    </svg>