<svg xmlns:xlink="http://www.w3.org/1999/xlink" width="24" height="24" viewBox="0 0 24 24" xmlns="http://www.w3.org/2000/svg" class="m-0">
        <path d="M12.5952 20.1636L18.306 14.4H17.1C16.9524 14.4 16.8084 14.382 16.668 14.3472L12.03 19.0296L7.39438 14.3472C7.25398 14.382 7.10878 14.4 6.95998 14.4H5.75878L11.4648 20.1636C11.7768 20.4792 12.2832 20.4792 12.5952 20.1636ZM20.0688 5.17564C20.7875 5.90241 21.2807 6.82153 21.4889 7.82223C21.6972 8.82293 21.6115 9.86249 21.2424 10.8156C21.162 10.805 21.081 10.7998 21 10.8H19.9332C20.3359 10.03 20.4834 9.1519 20.3544 8.29255C20.2255 7.4332 19.8266 6.63709 19.2156 6.01924C18.8477 5.64278 18.4085 5.34331 17.9237 5.13826C17.4389 4.93322 16.9182 4.8267 16.3918 4.82491C15.8654 4.82312 15.344 4.92611 14.8578 5.12786C14.3716 5.32961 13.9304 5.62609 13.56 6.00004L12.4188 7.15564C12.363 7.21205 12.2965 7.25684 12.2233 7.28741C12.1501 7.31798 12.0715 7.33372 11.9922 7.33372C11.9128 7.33372 11.8343 7.31798 11.761 7.28741C11.6878 7.25684 11.6214 7.21205 11.5656 7.15564L10.4136 5.99164C10.0461 5.61587 9.60763 5.31696 9.12356 5.1123C8.6395 4.90764 8.11955 4.80132 7.594 4.79954C7.06845 4.79775 6.5478 4.90053 6.06235 5.10189C5.5769 5.30326 5.13637 5.59918 4.76638 5.97244C3.47878 7.27324 3.25558 9.25324 4.10398 10.8H2.99998C2.92798 10.8 2.85598 10.8048 2.78398 10.812C2.39735 9.85785 2.29826 8.81141 2.4989 7.80161C2.69953 6.79181 3.19115 5.86274 3.91318 5.12884C4.39466 4.64278 4.96797 4.25731 5.59977 3.99482C6.23157 3.73234 6.90925 3.59808 7.5934 3.59987C8.27755 3.60166 8.95452 3.73945 9.58494 4.00523C10.2154 4.27101 10.7867 4.65947 11.2656 5.14804L11.9916 5.88004L12.7068 5.15644C13.1888 4.66966 13.7629 4.28359 14.3955 4.02071C15.0281 3.75782 15.7067 3.62336 16.3918 3.62515C17.0769 3.62693 17.7548 3.76493 18.386 4.03112C19.0173 4.2973 19.5893 4.68635 20.0688 5.17564ZM9.55438 7.56844C9.5091 7.45928 9.4326 7.36593 9.33447 7.30009C9.23634 7.23425 9.12095 7.19885 9.00278 7.19834C8.88461 7.19783 8.76892 7.23222 8.67022 7.29721C8.57152 7.3622 8.49421 7.45488 8.44798 7.56364L6.56398 12H2.99998C2.84085 12 2.68824 12.0633 2.57572 12.1758C2.4632 12.2883 2.39998 12.4409 2.39998 12.6C2.39998 12.7592 2.4632 12.9118 2.57572 13.0243C2.68824 13.1368 2.84085 13.2 2.99998 13.2H6.95998C7.07762 13.2 7.19267 13.1655 7.29081 13.1006C7.38896 13.0357 7.46587 12.9435 7.51198 12.8352L8.99398 9.34684L11.4456 15.2304C11.4878 15.3322 11.5573 15.4204 11.6464 15.4853C11.7354 15.5502 11.8406 15.5893 11.9505 15.5984C12.0603 15.6074 12.1705 15.5861 12.269 15.5366C12.3675 15.4872 12.4504 15.4115 12.5088 15.318L15.0804 11.2032L16.6488 12.9948C16.705 13.0592 16.7744 13.1108 16.8522 13.1462C16.93 13.1816 17.0145 13.2 17.1 13.2H21C21.1591 13.2 21.3117 13.1368 21.4242 13.0243C21.5368 12.9118 21.6 12.7592 21.6 12.6C21.6 12.4409 21.5368 12.2883 21.4242 12.1758C21.3117 12.0633 21.1591 12 21 12H17.3724L15.4524 9.80404C15.3907 9.73345 15.3133 9.6783 15.2264 9.64302C15.1395 9.60775 15.0456 9.59332 14.9521 9.60091C14.8587 9.60849 14.7683 9.63787 14.6883 9.6867C14.6082 9.73552 14.5407 9.80242 14.4912 9.88204L12.1068 13.6968L9.55438 7.56964V7.56844Z"></path>
    </svg>