<svg xmlns:xlink="http://www.w3.org/1999/xlink" width="16" height="16" viewBox="0 0 16 16" xmlns="http://www.w3.org/2000/svg" class="m-0">
        <path d="M7.31332 1.036C7.37429 1.01146 7.4395 0.999185 7.50522 0.999872C7.57093 1.00056 7.63587 1.01419 7.69632 1.04L12.5963 3.14C12.6793 3.17559 12.7511 3.23299 12.8041 3.30609C12.857 3.37919 12.8892 3.46528 12.8972 3.55521C12.9052 3.64513 12.8887 3.73555 12.8495 3.81685C12.8102 3.89816 12.7497 3.96732 12.6743 4.017L12.6733 4.019L12.6623 4.026C12.5868 4.07736 12.513 4.13139 12.4413 4.188C12.2933 4.302 12.0933 4.467 11.8883 4.668C11.4953 5.054 11.1413 5.516 11.0183 5.972C11.2583 6.667 11.6003 7.463 11.8923 8.106C12.051 8.45486 12.2143 8.80156 12.3823 9.146L13.9803 10.106C14.2911 10.2926 14.5482 10.5564 14.7268 10.8718C14.9054 11.1873 14.9992 11.5435 14.9993 11.906V13.5C14.9994 13.63 14.9488 13.755 14.8582 13.8484C14.7677 13.9417 14.6443 13.9961 14.5143 14L14.4993 13.5L14.5143 14H14.4803C14.341 14.0036 14.2016 14.0036 14.0623 14C12.3747 13.9607 10.6978 13.72 9.06732 13.283C6.15732 12.491 2.73732 10.806 1.04732 7.213C1.01501 7.14453 0.998678 7.06962 0.999544 6.99392C1.00041 6.91822 1.01846 6.84371 1.05232 6.776C1.57232 5.737 2.62232 4.513 3.77232 3.461C4.91932 2.41 6.23132 1.468 7.31232 1.036H7.31332ZM13.9993 12.998V12.461C7.67232 11.9 4.16032 9.277 2.43732 6.422C2.29332 6.625 2.16732 6.822 2.06032 7.01C3.60532 10.067 6.60732 11.577 9.33032 12.318C10.8547 12.7263 12.4218 12.9545 13.9993 12.998ZM13.4653 10.963L12.0773 10.13L11.1873 11.02C12.0183 11.208 12.9213 11.354 13.8993 11.448C13.8069 11.2463 13.6556 11.0772 13.4653 10.963ZM10.1453 10.646L11.3933 9.4L11.3853 9.382C11.2475 9.09616 11.1128 8.80881 10.9813 8.52C10.6683 7.83995 10.3824 7.14773 10.1243 6.445L8.55532 6.184L9.91532 8.224C9.9724 8.30993 10.0015 8.41142 9.99864 8.51454C9.99577 8.61766 9.96108 8.71737 9.89932 8.8L8.78232 10.29C9.19032 10.45 9.62232 10.598 10.0773 10.732C10.0968 10.701 10.1196 10.6721 10.1453 10.646ZM10.1453 5.434C10.3813 4.83 10.8183 4.317 11.1883 3.954C11.2703 3.874 11.3513 3.798 11.4293 3.728L7.49932 2.044C6.67532 2.414 5.65632 3.127 4.68832 3.982L5.85332 5.146C5.89972 5.19252 5.9365 5.24773 5.96155 5.30847C5.9866 5.36921 5.99943 5.4343 5.99932 5.5V8.797C6.54232 9.187 7.15332 9.552 7.83932 9.881L8.88732 8.483L7.08332 5.777C7.02942 5.69588 7.00039 5.60078 6.99979 5.50339C6.99919 5.406 7.02704 5.31055 7.07994 5.22877C7.13283 5.14699 7.20845 5.08244 7.29752 5.04304C7.38659 5.00364 7.48523 4.99112 7.58132 5.007L10.1443 5.434H10.1453ZM3.95732 4.665C3.65132 4.967 3.36432 5.273 3.10332 5.576C3.60015 6.47644 4.24057 7.28979 4.99932 7.984V5.707L3.95732 4.665Z"></path>
    </svg>