<svg xmlns:xlink="http://www.w3.org/1999/xlink" width="24" height="24" viewBox="0 0 24 24" xmlns="http://www.w3.org/2000/svg" class="m-0">
        <path d="M5.46006 22.5H17.5246C18.8116 22.5 19.8541 21.456 19.8541 20.169V10.371C21.9646 10.2195 23.2081 7.857 22.0666 6.0135L21.4141 4.9605C21.158 4.5468 20.8005 4.20537 20.3755 3.96858C19.9505 3.73179 19.4721 3.6075 18.9856 3.6075H17.2216V2.883C17.2218 2.70145 17.1862 2.52165 17.1168 2.35386C17.0475 2.18608 16.9458 2.03361 16.8175 1.90516C16.6892 1.77672 16.5368 1.67482 16.3691 1.6053C16.2014 1.53578 16.0216 1.5 15.8401 1.5C14.9704 1.5 14.1364 1.84547 13.5215 2.4604C12.9065 3.07533 12.5611 3.90936 12.5611 4.779V9.183C10.9171 9.3675 9.66606 10.161 8.74806 11.265C7.71606 12.504 7.11306 14.1135 6.75306 15.651C6.44369 17.038 6.26789 18.4515 6.22806 19.872C6.21306 20.31 6.21306 20.694 6.21606 21H5.46156C4.98151 21.0001 4.51192 20.8598 4.1105 20.5966C3.70909 20.3333 3.39336 19.9585 3.20212 19.5182C3.01089 19.0779 2.9525 18.5913 3.03412 18.1182C3.11575 17.6452 3.33383 17.2063 3.66156 16.8555L4.85706 15.573C5.69906 14.67 6.15774 13.4755 6.13647 12.241C6.11521 11.0065 5.61566 9.82846 4.74306 8.955L3.57006 7.7805C3.50087 7.70887 3.41811 7.65173 3.32661 7.61242C3.23511 7.57312 3.13669 7.55243 3.03711 7.55156C2.93752 7.5507 2.83876 7.56967 2.74659 7.60738C2.65442 7.64509 2.57068 7.70078 2.50026 7.7712C2.42984 7.84162 2.37415 7.92536 2.33644 8.01753C2.29873 8.10971 2.27975 8.20847 2.28062 8.30805C2.28148 8.40764 2.30217 8.50605 2.34148 8.59755C2.38079 8.68906 2.43792 8.77181 2.50956 8.841L3.68406 10.0155C4.28221 10.6138 4.62466 11.4211 4.63921 12.267C4.65376 13.1129 4.33928 13.9314 3.76206 14.55L2.56506 15.8325C2.03885 16.3971 1.68888 17.103 1.55808 17.8636C1.42728 18.6243 1.52135 19.4065 1.82873 20.1145C2.13611 20.8224 2.64345 21.4252 3.2885 21.849C3.93355 22.2727 4.68827 22.499 5.46006 22.5ZM15.7216 3.0045V4.3575C15.7216 4.55641 15.8006 4.74718 15.9412 4.88783C16.0819 5.02848 16.2726 5.1075 16.4716 5.1075H18.9856C19.4551 5.1075 19.8916 5.3505 20.1406 5.751L20.7931 6.804C20.921 7.00972 20.9916 7.24593 20.9975 7.48813C21.0033 7.73033 20.9443 7.96968 20.8264 8.18135C20.7086 8.39303 20.5362 8.5693 20.3273 8.69189C20.1183 8.81448 19.8803 8.87891 19.6381 8.8785H19.1056C18.9066 8.8785 18.7159 8.95752 18.5752 9.09817C18.4346 9.23882 18.3556 9.42959 18.3556 9.6285V20.169C18.3556 20.3894 18.268 20.6008 18.1122 20.7566C17.9563 20.9124 17.7449 21 17.5246 21H16.6951V20.169C16.6953 19.6553 16.5942 19.1467 16.3978 18.6721C16.2014 18.1974 15.9134 17.7662 15.5502 17.4029C15.1871 17.0396 14.7559 16.7514 14.2814 16.5548C13.8068 16.3582 13.2982 16.257 12.7846 16.257H11.4676C11.2686 16.257 11.0779 16.336 10.9372 16.4767C10.7966 16.6173 10.7176 16.8081 10.7176 17.007C10.7176 17.2059 10.7966 17.3967 10.9372 17.5373C11.0779 17.678 11.2686 17.757 11.4676 17.757H12.7846C14.1151 17.757 15.1951 18.837 15.1951 20.169V21H7.71606C7.71156 20.7105 7.71306 20.3445 7.72656 19.9215C7.76256 18.8385 7.88406 17.409 8.21406 15.9915C8.54706 14.5635 9.07956 13.209 9.90006 12.225C10.6966 11.268 11.7751 10.6425 13.3111 10.6425C13.51 10.6425 13.7007 10.5635 13.8414 10.4228C13.982 10.2822 14.0611 10.0914 14.0611 9.8925V4.779C14.0611 3.837 14.7946 3.0645 15.7216 3.0045Z"></path>
    </svg>