<svg xmlns:xlink="http://www.w3.org/1999/xlink" width="24" height="24" viewBox="0 0 24 24" xmlns="http://www.w3.org/2000/svg" class="m-0">
        <path d="M12.75 3C12.5511 3 12.3603 3.07902 12.2197 3.21967C12.079 3.36032 12 3.55109 12 3.75C12 3.94891 12.079 4.13968 12.2197 4.28033C12.3603 4.42098 12.5511 4.5 12.75 4.5H14.424L15.2235 7.5H9.00002V5.25C9.00002 5.05109 8.921 4.86032 8.78035 4.71967C8.6397 4.57902 8.44893 4.5 8.25002 4.5H5.25002C5.05111 4.5 4.86034 4.57902 4.71969 4.71967C4.57904 4.86032 4.50002 5.05109 4.50002 5.25C4.50002 5.44891 4.57904 5.63968 4.71969 5.78033C4.86034 5.92098 5.05111 6 5.25002 6H7.50002V7.8C7.50001 7.87632 7.51164 7.95219 7.53452 8.025L6.69002 10.5525C5.79384 10.413 4.87641 10.5475 4.05802 10.9385C3.23963 11.3295 2.55849 11.9586 2.10388 12.7434C1.64928 13.5282 1.44244 14.4321 1.51049 15.3365C1.57853 16.241 1.91828 17.1037 2.4852 17.8117C3.05211 18.5197 3.81972 19.0398 4.6874 19.3039C5.55507 19.568 6.4823 19.5638 7.34752 19.2918C8.21274 19.0197 8.97557 18.4926 9.53599 17.7795C10.0964 17.0663 10.4283 16.2005 10.488 15.2955L15.729 9.4005L16.131 10.905C15.1042 11.3727 14.2905 12.2091 13.8513 13.2485C13.412 14.2878 13.3793 15.4543 13.7595 16.5166C14.1398 17.579 14.9052 18.4597 15.9042 18.9843C16.9032 19.5089 18.0628 19.639 19.1533 19.3489C20.2437 19.0588 21.1853 18.3697 21.7916 17.418C22.3979 16.4664 22.6245 15.3217 22.4265 14.2108C22.2286 13.1 21.6206 12.104 20.7229 11.4203C19.8253 10.7366 18.7035 10.4151 17.58 10.5195L15.7245 3.555C15.6816 3.39568 15.5874 3.25495 15.4564 3.15462C15.3254 3.05428 15.165 2.99994 15 3H12.75ZM6.00002 12C6.06902 12 6.13802 12.003 6.20702 12.0075L5.28902 14.763C5.25149 14.8757 5.24126 14.9957 5.25917 15.1131C5.27708 15.2305 5.32262 15.342 5.39205 15.4384C5.46147 15.5347 5.55279 15.6133 5.65849 15.6674C5.76419 15.7216 5.88125 15.7499 6.00002 15.75H8.90552C8.76525 16.2933 8.47546 16.7863 8.06904 17.1731C7.66262 17.5599 7.15587 17.825 6.60635 17.9382C6.05683 18.0515 5.48657 18.0084 4.96032 17.8138C4.43408 17.6192 3.97295 17.2809 3.62931 16.8374C3.28567 16.3939 3.07329 15.8629 3.0163 15.3047C2.95931 14.7466 3.05999 14.1836 3.3069 13.6798C3.55381 13.176 3.93706 12.7515 4.41311 12.4546C4.88917 12.1576 5.43895 12.0001 6.00002 12ZM7.04102 14.25L7.63052 12.48C8.25302 12.885 8.71502 13.512 8.90552 14.25H7.04102ZM8.11502 11.0265L8.79002 9H14.0805L10.1955 13.3695C9.80395 12.3652 9.06598 11.5341 8.11502 11.0265ZM16.527 12.3855L17.2755 15.1935C17.3295 15.3827 17.4556 15.5431 17.6267 15.6402C17.7978 15.7373 18.0002 15.7632 18.1903 15.7125C18.3804 15.6617 18.5429 15.5383 18.6428 15.3688C18.7428 15.1993 18.7721 14.9974 18.7245 14.8065L17.976 12.0015L18 12C18.7292 12.0004 19.4332 12.2664 19.9806 12.7483C20.5279 13.2301 20.8809 13.8948 20.9738 14.618C21.0666 15.3412 20.8929 16.0735 20.4851 16.678C20.0772 17.2824 19.4632 17.7176 18.7578 17.9023C18.0523 18.0869 17.3038 18.0082 16.6522 17.6811C16.0005 17.3539 15.4903 16.8006 15.217 16.1246C14.9436 15.4486 14.9258 14.6962 15.167 14.008C15.4081 13.3199 15.8915 12.7431 16.527 12.3855Z"></path>
    </svg>