<svg xmlns:xlink="http://www.w3.org/1999/xlink" width="21" height="20" viewBox="0 0 21 20" xmlns="http://www.w3.org/2000/svg" class="m-0">
        <path d="M16.4865 3.015C16.463 2.874 16.4096 2.73967 16.3297 2.62107C16.2499 2.50247 16.1456 2.40236 16.0238 2.3275C15.9021 2.25263 15.7656 2.20474 15.6238 2.18706C15.4819 2.16938 15.3379 2.18232 15.2015 2.225L8.20151 4.413C7.99797 4.47655 7.82007 4.60349 7.69378 4.77529C7.56749 4.9471 7.49942 5.15478 7.49951 5.368V13.5C7.04898 13.1621 6.49754 12.9862 5.93456 13.0008C5.37158 13.0155 4.83002 13.2198 4.39765 13.5806C3.96527 13.9415 3.6674 14.4377 3.55229 14.989C3.43718 15.5403 3.51159 16.1143 3.76345 16.618C4.01531 17.1218 4.42986 17.5257 4.93996 17.7644C5.45005 18.0031 6.02579 18.0625 6.5739 17.9331C7.12201 17.8037 7.61037 17.4931 7.95987 17.0515C8.30936 16.6099 8.49951 16.0632 8.49951 15.5V8.368L15.4995 6.18V11.5C15.049 11.1621 14.4975 10.9862 13.9346 11.0008C13.3716 11.0155 12.83 11.2198 12.3976 11.5806C11.9653 11.9415 11.6674 12.4377 11.5523 12.989C11.4372 13.5403 11.5116 14.1143 11.7634 14.618C12.0153 15.1218 12.4299 15.5257 12.94 15.7644C13.45 16.0031 14.0258 16.0625 14.5739 15.9331C15.122 15.8037 15.6104 15.4931 15.9599 15.0515C16.3094 14.6099 16.4995 14.0632 16.4995 13.5V3.18C16.4995 3.124 16.4945 3.069 16.4865 3.015Z"></path>
    </svg>