<svg xmlns:xlink="http://www.w3.org/1999/xlink" width="24" height="24" viewBox="0 0 24 24" xmlns="http://www.w3.org/2000/svg" class="m-0">
        <path d="M9 3H19.5C19.8978 3 20.2794 3.15804 20.5607 3.43934C20.842 3.72064 21 4.10218 21 4.5V13.5C21 13.8978 20.842 14.2794 20.5607 14.5607C20.2794 14.842 19.8978 15 19.5 15H12V16.5H15V18H12V19.5H17.25C17.4489 19.5 17.6397 19.421 17.7803 19.2803C17.921 19.1397 18 18.9489 18 18.75C18 18.5511 17.921 18.3603 17.7803 18.2197C17.6397 18.079 17.4489 18 17.25 18H16.5V16.5H19.5C20.2956 16.5 21.0587 16.1839 21.6213 15.6213C22.1839 15.0587 22.5 14.2956 22.5 13.5V4.5C22.5 3.70435 22.1839 2.94129 21.6213 2.37868C21.0587 1.81607 20.2956 1.5 19.5 1.5H9C8.20435 1.5 7.44129 1.81607 6.87868 2.37868C6.31607 2.94129 6 3.70435 6 4.5V7.5H7.5V4.5C7.5 4.10218 7.65804 3.72064 7.93934 3.43934C8.22064 3.15804 8.60218 3 9 3Z"></path>
        <path d="M5.25 18C5.05109 18 4.86032 18.079 4.71967 18.2197C4.57902 18.3603 4.5 18.5511 4.5 18.75C4.5 18.9489 4.57902 19.1397 4.71967 19.2803C4.86032 19.421 5.05109 19.5 5.25 19.5H6.75C6.94891 19.5 7.13968 19.421 7.28033 19.2803C7.42098 19.1397 7.5 18.9489 7.5 18.75C7.5 18.5511 7.42098 18.3603 7.28033 18.2197C7.13968 18.079 6.94891 18 6.75 18H5.25Z"></path>
        <path d="M3.75 9C3.15326 9 2.58097 9.23705 2.15901 9.65901C1.73705 10.081 1.5 10.6533 1.5 11.25V20.25C1.5 20.8467 1.73705 21.419 2.15901 21.841C2.58097 22.2629 3.15326 22.5 3.75 22.5H8.25C8.84674 22.5 9.41903 22.2629 9.84099 21.841C10.2629 21.419 10.5 20.8467 10.5 20.25V11.25C10.5 10.6533 10.2629 10.081 9.84099 9.65901C9.41903 9.23705 8.84674 9 8.25 9H3.75ZM3.75 10.5H8.25C8.44891 10.5 8.63968 10.579 8.78033 10.7197C8.92098 10.8603 9 11.0511 9 11.25V20.25C9 20.4489 8.92098 20.6397 8.78033 20.7803C8.63968 20.921 8.44891 21 8.25 21H3.75C3.55109 21 3.36032 20.921 3.21967 20.7803C3.07902 20.6397 3 20.4489 3 20.25V11.25C3 11.0511 3.07902 10.8603 3.21967 10.7197C3.36032 10.579 3.55109 10.5 3.75 10.5Z"></path>
    </svg>