<svg xmlns:xlink="http://www.w3.org/1999/xlink" width="25" height="24" viewBox="0 0 25 24" xmlns="http://www.w3.org/2000/svg" class="m-0">
        <path d="M15.75 2C15.9312 2.00001 16.1063 2.06564 16.2429 2.18477C16.3795 2.30389 16.4684 2.46845 16.493 2.648L16.5 2.75V5.075C17.2205 5.22246 17.8817 5.57828 18.4017 6.09828C18.9217 6.61827 19.2775 7.27955 19.425 8H21.75C21.94 8.00006 22.1229 8.07224 22.2618 8.20197C22.4006 8.3317 22.4851 8.5093 22.498 8.69888C22.511 8.88846 22.4515 9.07589 22.3316 9.2233C22.2117 9.37071 22.0402 9.4671 21.852 9.493L21.75 9.5H19.5V11.25H21.75C21.9312 11.25 22.1063 11.3156 22.2429 11.4348C22.3795 11.5539 22.4684 11.7184 22.493 11.898L22.5 12C22.5 12.1812 22.4344 12.3563 22.3152 12.4929C22.1961 12.6295 22.0316 12.7184 21.852 12.743L21.75 12.75H19.5V14.5H21.75C21.9312 14.5 22.1063 14.5656 22.2429 14.6848C22.3795 14.8039 22.4684 14.9684 22.493 15.148L22.5 15.25C22.5 15.4312 22.4344 15.6063 22.3152 15.7429C22.1961 15.8795 22.0316 15.9684 21.852 15.993L21.75 16H19.425C19.2777 16.7206 18.922 17.3821 18.402 17.9023C17.882 18.4225 17.2206 18.7785 16.5 18.926V21.251C16.4999 21.441 16.4278 21.6239 16.298 21.7628C16.1683 21.9016 15.9907 21.9861 15.8011 21.999C15.6115 22.012 15.4241 21.9525 15.2767 21.8326C15.1293 21.7127 15.0329 21.5413 15.007 21.353L15 21.251V19H13.249L13.25 21.251C13.25 21.4322 13.1844 21.6073 13.0652 21.7439C12.9461 21.8805 12.7816 21.9694 12.602 21.994L12.5 22C12.3188 22 12.1437 21.9344 12.0071 21.8152C11.8705 21.6961 11.7816 21.5316 11.757 21.352L11.75 21.25L11.749 18.999H10V21.25C9.99999 21.4312 9.93436 21.6063 9.81523 21.7429C9.69611 21.8795 9.53155 21.9684 9.352 21.993L9.25 22C9.06876 22 8.89366 21.9344 8.75707 21.8152C8.62048 21.6961 8.53165 21.5316 8.507 21.352L8.5 21.25V18.925C7.77955 18.7775 7.11827 18.4217 6.59828 17.9017C6.07828 17.3817 5.72246 16.7205 5.575 16H3.25C3.05998 15.9999 2.87706 15.9278 2.73821 15.798C2.59936 15.6683 2.51493 15.4907 2.50197 15.3011C2.48902 15.1115 2.54852 14.9241 2.66843 14.7767C2.78835 14.6293 2.95975 14.5329 3.148 14.507L3.25 14.5L5.5 14.499V12.749L3.25 12.75C3.06876 12.75 2.89366 12.6844 2.75707 12.5652C2.62048 12.4461 2.53165 12.2816 2.507 12.102L2.5 12C2.50001 11.8188 2.56564 11.6437 2.68477 11.5071C2.80389 11.3705 2.96845 11.2816 3.148 11.257L3.25 11.25L5.5 11.249V9.499L3.25 9.5C3.06876 9.49999 2.89366 9.43436 2.75707 9.31523C2.62048 9.19611 2.53165 9.03155 2.507 8.852L2.5 8.75C2.50001 8.56876 2.56564 8.39366 2.68477 8.25707C2.80389 8.12048 2.96845 8.03165 3.148 8.007L3.25 8L5.575 7.999C5.72264 7.27873 6.07853 6.61767 6.59852 6.09787C7.1185 5.57806 7.77968 5.22239 8.5 5.075V2.75C8.50006 2.55998 8.57224 2.37706 8.70197 2.23821C8.8317 2.09936 9.0093 2.01493 9.19888 2.00197C9.38846 1.98902 9.57589 2.04852 9.7233 2.16843C9.87071 2.28835 9.9671 2.45975 9.993 2.648L10 2.75V4.999H11.749L11.75 2.75C11.75 2.56876 11.8156 2.39366 11.9348 2.25707C12.0539 2.12048 12.2184 2.03165 12.398 2.007L12.5 2C12.6812 2.00001 12.8563 2.06564 12.9929 2.18477C13.1295 2.30389 13.2184 2.46845 13.243 2.648L13.25 2.75L13.249 4.999H15V2.75C15 2.58592 15.0537 2.42635 15.1531 2.29576C15.2524 2.16517 15.3919 2.07076 15.55 2.027L15.648 2.007L15.75 2ZM15.75 6.5H9.25C8.65326 6.5 8.08097 6.73705 7.65901 7.15901C7.23705 7.58097 7 8.15326 7 8.75V15.25C7 15.8467 7.23705 16.419 7.65901 16.841C8.08097 17.2629 8.65326 17.5 9.25 17.5H15.75C16.3467 17.5 16.919 17.2629 17.341 16.841C17.7629 16.419 18 15.8467 18 15.25V8.75C18 8.15326 17.7629 7.58097 17.341 7.15901C16.919 6.73705 16.3467 6.5 15.75 6.5ZM12.505 9.005C13.3006 9.005 14.0637 9.32107 14.6263 9.88368C15.1889 10.4463 15.505 11.2094 15.505 12.005C15.505 12.8006 15.1889 13.5637 14.6263 14.1263C14.0637 14.6889 13.3006 15.005 12.505 15.005C11.7094 15.005 10.9463 14.6889 10.3837 14.1263C9.82107 13.5637 9.505 12.8006 9.505 12.005C9.505 11.2094 9.82107 10.4463 10.3837 9.88368C10.9463 9.32107 11.7094 9.005 12.505 9.005ZM12.505 10.505C12.1072 10.505 11.7256 10.663 11.4443 10.9443C11.163 11.2256 11.005 11.6072 11.005 12.005C11.005 12.4028 11.163 12.7844 11.4443 13.0657C11.7256 13.347 12.1072 13.505 12.505 13.505C12.9028 13.505 13.2844 13.347 13.5657 13.0657C13.847 12.7844 14.005 12.4028 14.005 12.005C14.005 11.6072 13.847 11.2256 13.5657 10.9443C13.2844 10.663 12.9028 10.505 12.505 10.505Z"></path>
    </svg>