<svg xmlns:xlink="http://www.w3.org/1999/xlink" width="25" height="24" viewBox="0 0 25 24" xmlns="http://www.w3.org/2000/svg" class="m-0">
        <path d="M12.5 7.5C12.7984 7.5 13.0845 7.38147 13.2955 7.1705C13.5065 6.95952 13.625 6.67337 13.625 6.375C13.625 6.07663 13.5065 5.79048 13.2955 5.5795C13.0845 5.36853 12.7984 5.25 12.5 5.25C12.2016 5.25 11.9155 5.36853 11.7045 5.5795C11.4935 5.79048 11.375 6.07663 11.375 6.375C11.375 6.67337 11.4935 6.95952 11.7045 7.1705C11.9155 7.38147 12.2016 7.5 12.5 7.5Z" fill="#033FFF"></path>
        <path d="M13.6039 2.18097C13.2918 1.92738 12.902 1.78894 12.4999 1.78894C12.0978 1.78894 11.7079 1.92738 11.3959 2.18097L3.89289 8.27997C2.98089 9.02247 3.50589 10.5 4.68189 10.5H4.99989V16.8C4.10889 17.2545 3.49989 18.18 3.49989 19.2495V20.25C3.49989 20.4489 3.57891 20.6397 3.71956 20.7803C3.86022 20.921 4.05098 21 4.24989 21H20.7499C20.9488 21 21.1396 20.921 21.2802 20.7803C21.4209 20.6397 21.4999 20.4489 21.4999 20.25V19.2495C21.4999 18.1815 20.8909 17.2545 19.9999 16.8V10.5H20.3179C21.4939 10.5 22.0189 9.02247 21.1054 8.27997L13.6054 2.18097H13.6039ZM12.3439 3.34497C12.3885 3.30893 12.4441 3.28927 12.5014 3.28927C12.5587 3.28927 12.6143 3.30893 12.6589 3.34497L19.6114 8.99997H5.38689L12.3439 3.34497ZM18.4999 16.5H16.9999V10.5H18.4999V16.5ZM15.4999 16.5H13.2499V10.5H15.4999V16.5ZM11.7499 16.5H9.49989V10.5H11.7499V16.5ZM18.7504 18C19.4404 18 19.9999 18.5595 19.9999 19.2495V19.5H4.99989V19.2495C4.99989 18.5595 5.55939 18 6.24939 18H18.7504ZM7.99989 16.5H6.49989V10.5H7.99989V16.5Z"></path>
    </svg>