<svg xmlns:xlink="http://www.w3.org/1999/xlink" width="24" height="24" viewBox="0 0 24 24" xmlns="http://www.w3.org/2000/svg" class="m-0">
        <path d="M5.75 2C5.55109 2 5.36032 2.07902 5.21967 2.21967C5.07902 2.36032 5 2.55109 5 2.75V14.25C5 14.8467 5.23705 15.419 5.65901 15.841C6.08097 16.2629 6.65326 16.5 7.25 16.5H9.5V19.5C9.5 20.163 9.76339 20.7989 10.2322 21.2678C10.7011 21.7366 11.337 22 12 22C12.663 22 13.2989 21.7366 13.7678 21.2678C14.2366 20.7989 14.5 20.163 14.5 19.5V16.5H16.75C17.0455 16.5 17.3381 16.4418 17.611 16.3287C17.884 16.2157 18.1321 16.0499 18.341 15.841C18.5499 15.6321 18.7157 15.384 18.8287 15.111C18.9418 14.8381 19 14.5455 19 14.25V2.75C19 2.55109 18.921 2.36032 18.7803 2.21967C18.6397 2.07902 18.4489 2 18.25 2H5.75ZM6.5 11V3.5H12.5V5.252C12.5 5.45091 12.579 5.64168 12.7197 5.78233C12.8603 5.92298 13.0511 6.002 13.25 6.002C13.4489 6.002 13.6397 5.92298 13.7803 5.78233C13.921 5.64168 14 5.45091 14 5.252V3.5H15V6.251C15 6.44991 15.079 6.64068 15.2197 6.78133C15.3603 6.92198 15.5511 7.001 15.75 7.001C15.9489 7.001 16.1397 6.92198 16.2803 6.78133C16.421 6.64068 16.5 6.44991 16.5 6.251V3.5H17.5V11H6.5ZM6.5 14.25V12.5H17.5V14.25C17.5 14.4489 17.421 14.6397 17.2803 14.7803C17.1397 14.921 16.9489 15 16.75 15H13.75C13.5511 15 13.3603 15.079 13.2197 15.2197C13.079 15.3603 13 15.5511 13 15.75V19.5C13 19.7652 12.8946 20.0196 12.7071 20.2071C12.5196 20.3946 12.2652 20.5 12 20.5C11.7348 20.5 11.4804 20.3946 11.2929 20.2071C11.1054 20.0196 11 19.7652 11 19.5V15.75C11 15.5511 10.921 15.3603 10.7803 15.2197C10.6397 15.079 10.4489 15 10.25 15H7.25C7.05109 15 6.86032 14.921 6.71967 14.7803C6.57902 14.6397 6.5 14.4489 6.5 14.25Z"></path>
    </svg>