<svg xmlns:xlink="http://www.w3.org/1999/xlink" width="24" height="24" viewBox="0 0 24 24" xmlns="http://www.w3.org/2000/svg" class="m-0">
        <path d="M14.052 3.67203C13.4419 3.2732 12.7289 3.06079 12 3.06079C11.2711 3.06079 10.5581 3.2732 9.94799 3.67203L1.83899 8.97303C1.72364 9.04835 1.63126 9.15399 1.57198 9.27835C1.51271 9.40271 1.48884 9.541 1.50299 9.67803C1.50085 9.70197 1.49985 9.726 1.49999 9.75003V15.75C1.49999 15.9489 1.57901 16.1397 1.71966 16.2804C1.86031 16.421 2.05108 16.5 2.24999 16.5C2.4489 16.5 2.63967 16.421 2.78032 16.2804C2.92097 16.1397 2.99999 15.9489 2.99999 15.75V11.016L4.49999 12.0315V17.5515C4.49999 17.7315 4.56449 17.904 4.67999 18.039L4.68299 18.0435L4.69199 18.054L4.72199 18.087L4.82399 18.198C4.91249 18.291 5.03999 18.42 5.20499 18.573C5.53499 18.8775 6.01949 19.2795 6.64349 19.683C7.88849 20.4855 9.71699 21.303 12 21.303C14.283 21.303 16.11 20.4855 17.3565 19.683C17.9805 19.2795 18.465 18.8775 18.795 18.573C18.9627 18.4178 19.1238 18.2557 19.278 18.087L19.308 18.054L19.317 18.0435L19.32 18.0405L19.3215 18.0375C19.4365 17.9023 19.4997 17.7306 19.5 17.553V12.03L22.17 10.2225C22.2777 10.1589 22.3656 10.0665 22.4239 9.95581C22.4821 9.8451 22.5085 9.72036 22.5 9.59553C22.499 9.47173 22.4674 9.35009 22.408 9.24147C22.3486 9.13285 22.2632 9.04063 22.1595 8.97303L14.052 3.67203ZM18 13.044V17.2545C17.5556 17.6922 17.0676 18.0833 16.5435 18.4215C15.4635 19.116 13.917 19.8015 12 19.8015C10.083 19.8015 8.53499 19.116 7.45649 18.4215C6.93235 18.0828 6.4443 17.6913 5.99999 17.253V13.0455L9.89849 15.684C10.5189 16.1038 11.2509 16.3282 12 16.3282C12.7491 16.3282 13.4811 16.1038 14.1015 15.684L18 13.044ZM5.24999 17.5515L4.67999 18.0375L5.24999 17.55V17.5515ZM10.7685 4.92753C11.1346 4.68811 11.5625 4.56059 12 4.56059C12.4374 4.56059 12.8654 4.68811 13.2315 4.92753L20.3955 9.60003L13.2615 14.442C12.8891 14.6942 12.4497 14.8289 12 14.8289C11.5503 14.8289 11.1109 14.6942 10.7385 14.442L3.60299 9.61203L10.77 4.92753H10.7685Z"></path>
    </svg>