<svg xmlns:xlink="http://www.w3.org/1999/xlink" width="24" height="24" viewBox="0 0 24 24" xmlns="http://www.w3.org/2000/svg" class="m-0">
        <path d="M8.25 3C7.65326 3 7.08097 3.23705 6.65901 3.65901C6.23705 4.08097 6 4.65326 6 5.25V20.25C6 20.4489 6.07902 20.6397 6.21967 20.7803C6.36032 20.921 6.55109 21 6.75 21H9V17.25C9 17.0511 9.07902 16.8603 9.21967 16.7197C9.36032 16.579 9.55109 16.5 9.75 16.5H15.75C15.9489 16.5 16.1397 16.579 16.2803 16.7197C16.421 16.8603 16.5 17.0511 16.5 17.25V21H18.75C18.9489 21 19.1397 20.921 19.2803 20.7803C19.421 20.6397 19.5 20.4489 19.5 20.25V12.75C19.5 12.1533 19.2629 11.581 18.841 11.159C18.419 10.7371 17.8467 10.5 17.25 10.5H16.5V5.25C16.5 4.65326 16.2629 4.08097 15.841 3.65901C15.419 3.23705 14.8467 3 14.25 3H8.25ZM10.5 6.75C10.5 6.94891 10.421 7.13968 10.2803 7.28033C10.1397 7.42098 9.94891 7.5 9.75 7.5C9.55109 7.5 9.36032 7.42098 9.21967 7.28033C9.07902 7.13968 9 6.94891 9 6.75C9 6.55109 9.07902 6.36032 9.21967 6.21967C9.36032 6.07902 9.55109 6 9.75 6C9.94891 6 10.1397 6.07902 10.2803 6.21967C10.421 6.36032 10.5 6.55109 10.5 6.75ZM10.5 10.5C10.5 10.6989 10.421 10.8897 10.2803 11.0303C10.1397 11.171 9.94891 11.25 9.75 11.25C9.55109 11.25 9.36032 11.171 9.21967 11.0303C9.07902 10.8897 9 10.6989 9 10.5C9 10.3011 9.07902 10.1103 9.21967 9.96967C9.36032 9.82902 9.55109 9.75 9.75 9.75C9.94891 9.75 10.1397 9.82902 10.2803 9.96967C10.421 10.1103 10.5 10.3011 10.5 10.5ZM10.5 14.25C10.5 14.4489 10.421 14.6397 10.2803 14.7803C10.1397 14.921 9.94891 15 9.75 15C9.55109 15 9.36032 14.921 9.21967 14.7803C9.07902 14.6397 9 14.4489 9 14.25C9 14.0511 9.07902 13.8603 9.21967 13.7197C9.36032 13.579 9.55109 13.5 9.75 13.5C9.94891 13.5 10.1397 13.579 10.2803 13.7197C10.421 13.8603 10.5 14.0511 10.5 14.25ZM13.5 6.75C13.5 6.94891 13.421 7.13968 13.2803 7.28033C13.1397 7.42098 12.9489 7.5 12.75 7.5C12.5511 7.5 12.3603 7.42098 12.2197 7.28033C12.079 7.13968 12 6.94891 12 6.75C12 6.55109 12.079 6.36032 12.2197 6.21967C12.3603 6.07902 12.5511 6 12.75 6C12.9489 6 13.1397 6.07902 13.2803 6.21967C13.421 6.36032 13.5 6.55109 13.5 6.75ZM13.5 10.5C13.5 10.6989 13.421 10.8897 13.2803 11.0303C13.1397 11.171 12.9489 11.25 12.75 11.25C12.5511 11.25 12.3603 11.171 12.2197 11.0303C12.079 10.8897 12 10.6989 12 10.5C12 10.3011 12.079 10.1103 12.2197 9.96967C12.3603 9.82902 12.5511 9.75 12.75 9.75C12.9489 9.75 13.1397 9.82902 13.2803 9.96967C13.421 10.1103 13.5 10.3011 13.5 10.5ZM13.5 14.25C13.5 14.4489 13.421 14.6397 13.2803 14.7803C13.1397 14.921 12.9489 15 12.75 15C12.5511 15 12.3603 14.921 12.2197 14.7803C12.079 14.6397 12 14.4489 12 14.25C12 14.0511 12.079 13.8603 12.2197 13.7197C12.3603 13.579 12.5511 13.5 12.75 13.5C12.9489 13.5 13.1397 13.579 13.2803 13.7197C13.421 13.8603 13.5 14.0511 13.5 14.25ZM16.5 14.25C16.5 14.4489 16.421 14.6397 16.2803 14.7803C16.1397 14.921 15.9489 15 15.75 15C15.5511 15 15.3603 14.921 15.2197 14.7803C15.079 14.6397 15 14.4489 15 14.25C15 14.0511 15.079 13.8603 15.2197 13.7197C15.3603 13.579 15.5511 13.5 15.75 13.5C15.9489 13.5 16.1397 13.579 16.2803 13.7197C16.421 13.8603 16.5 14.0511 16.5 14.25ZM15 21V18H13.5045V21H15ZM12.0045 21V18H10.5V21H12.0045Z"></path>
    </svg>