<svg xmlns:xlink="http://www.w3.org/1999/xlink" width="24" height="24" viewBox="0 0 24 24" xmlns="http://www.w3.org/2000/svg" class="m-0">
        <path d="M14.9975 5C16.8338 4.9991 18.5969 5.71983 19.9068 7.0068C21.2167 8.29378 21.9684 10.0439 21.9999 11.88C22.0313 13.716 21.3401 15.4909 20.0751 16.8221C18.8101 18.1532 17.0727 18.9339 15.2375 18.996L14.9975 19H9.00146C7.16514 19.0009 5.40201 18.2802 4.09213 16.9932C2.78226 15.7062 2.03056 13.9561 1.99908 12.12C1.96759 10.284 2.65885 8.50907 3.92382 7.17794C5.1888 5.84681 6.92619 5.06606 8.76146 5.004L9.00046 5H14.9965H14.9975ZM14.7495 12.5C14.4179 12.5 14.1 12.6317 13.8656 12.8661C13.6312 13.1005 13.4995 13.4185 13.4995 13.75C13.4995 14.0815 13.6312 14.3995 13.8656 14.6339C14.1 14.8683 14.4179 15 14.7495 15C15.081 15 15.3989 14.8683 15.6333 14.6339C15.8678 14.3995 15.9995 14.0815 15.9995 13.75C15.9995 13.4185 15.8678 13.1005 15.6333 12.8661C15.3989 12.6317 15.081 12.5 14.7495 12.5ZM7.99946 9C7.81823 9.00001 7.64312 9.06564 7.50653 9.18477C7.36994 9.30389 7.28111 9.46845 7.25646 9.648L7.24946 9.75V11.248H5.74946C5.55809 11.2461 5.37321 11.3173 5.23268 11.4473C5.09215 11.5772 5.00661 11.7559 4.99358 11.9469C4.98054 12.1378 5.041 12.3265 5.16256 12.4743C5.28412 12.6222 5.4576 12.7179 5.64746 12.742L5.74946 12.749L7.24946 12.748V14.25C7.24952 14.44 7.32171 14.6229 7.45144 14.7618C7.58116 14.9006 7.75876 14.9851 7.94834 14.998C8.13793 15.011 8.32536 14.9515 8.47276 14.8316C8.62017 14.7117 8.71656 14.5403 8.74246 14.352L8.74946 14.25V12.748H10.2495C10.4383 12.7462 10.6195 12.6733 10.7569 12.5437C10.8943 12.4142 10.9778 12.2376 10.9907 12.0492C11.0036 11.8608 10.9449 11.6745 10.8264 11.5274C10.7079 11.3804 10.5383 11.2835 10.3515 11.256L10.2495 11.249L8.74946 11.248V9.75C8.74946 9.55109 8.67045 9.36032 8.52979 9.21967C8.38914 9.07902 8.19838 9 7.99946 9ZM16.7495 9C16.4179 9 16.1 9.1317 15.8656 9.36612C15.6312 9.60054 15.4995 9.91848 15.4995 10.25C15.4995 10.5815 15.6312 10.8995 15.8656 11.1339C16.1 11.3683 16.4179 11.5 16.7495 11.5C17.081 11.5 17.3989 11.3683 17.6333 11.1339C17.8678 10.8995 17.9995 10.5815 17.9995 10.25C17.9995 9.91848 17.8678 9.60054 17.6333 9.36612C17.3989 9.1317 17.081 9 16.7495 9Z"></path>
    </svg>