<svg xmlns:xlink="http://www.w3.org/1999/xlink" width="25" height="24" viewBox="0 0 25 24" xmlns="http://www.w3.org/2000/svg" class="m-0">
        <path d="M4.25 22.5C4.44891 22.5 4.63968 22.421 4.78033 22.2803C4.92098 22.1397 5 21.9489 5 21.75V17.25C5 17.0511 5.07902 16.8603 5.21967 16.7197C5.36032 16.579 5.55109 16.5 5.75 16.5H19.253C19.4519 16.5 19.6427 16.579 19.7833 16.7197C19.924 16.8603 20.003 17.0511 20.003 17.25V21.75C20.003 21.9489 20.082 22.1397 20.2227 22.2803C20.3633 22.421 20.5541 22.5 20.753 22.5C20.9519 22.5 21.1427 22.421 21.2833 22.2803C21.424 22.1397 21.503 21.9489 21.503 21.75V17.25C21.5031 16.7843 21.3588 16.3301 21.0898 15.9499C20.8209 15.5698 20.4406 15.2824 20.0015 15.1275V13.5C20.0015 12.7043 19.6854 11.9413 19.1228 11.3787C18.5602 10.8161 17.7971 10.5 17.0015 10.5H17L17.0045 7.89C17.0051 7.51226 16.9106 7.14044 16.7298 6.80883C16.5489 6.47721 16.2874 6.19648 15.9695 5.9925L9.1595 1.6185C9.04617 1.54579 8.91535 1.50492 8.78078 1.50021C8.64621 1.49549 8.51285 1.52709 8.3947 1.59169C8.27656 1.65628 8.17798 1.7515 8.10932 1.86733C8.04066 1.98316 8.00446 2.11535 8.0045 2.25V10.5H8C7.20435 10.5 6.44129 10.8161 5.87868 11.3787C5.31607 11.9413 5 12.7043 5 13.5V15.1275C4.56113 15.2827 4.18119 15.5701 3.91254 15.9503C3.64389 16.3304 3.49976 16.7845 3.5 17.25V21.75C3.5 21.9489 3.57902 22.1397 3.71967 22.2803C3.86032 22.421 4.05109 22.5 4.25 22.5ZM9.5045 10.5V3.6225L15.1595 7.2555C15.2653 7.3234 15.3524 7.41682 15.4127 7.52717C15.473 7.63752 15.5045 7.76126 15.5045 7.887L15.5 10.5H9.5045ZM6.5 13.5C6.5 13.1022 6.65804 12.7206 6.93934 12.4393C7.22064 12.158 7.60218 12 8 12H17C17.3978 12 17.7794 12.158 18.0607 12.4393C18.342 12.7206 18.5 13.1022 18.5 13.5V15H6.5V13.5Z"></path>
    </svg>