<svg xmlns:xlink="http://www.w3.org/1999/xlink" width="25" height="24" viewBox="0 0 25 24" xmlns="http://www.w3.org/2000/svg" class="m-0">
        <path d="M9.50005 10.8025C9.73795 10.8025 9.9661 10.708 10.1343 10.5397C10.3025 10.3715 10.397 10.1434 10.397 9.90546C10.397 9.66756 10.3025 9.4394 10.1343 9.27118C9.9661 9.10296 9.73795 9.00846 9.50005 9.00846C9.26215 9.00846 9.03399 9.10296 8.86577 9.27118C8.69755 9.4394 8.60305 9.66756 8.60305 9.90546C8.60305 10.1434 8.69755 10.3715 8.86577 10.5397C9.03399 10.708 9.26215 10.8025 9.50005 10.8025ZM13.9676 12.3061C13.9676 12.544 13.8731 12.7721 13.7049 12.9403C13.5367 13.1086 13.3085 13.2031 13.0706 13.2031C12.8327 13.2031 12.6046 13.1086 12.4364 12.9403C12.2682 12.7721 12.1736 12.544 12.1736 12.3061C12.1736 12.0682 12.2682 11.84 12.4364 11.6718C12.6046 11.5036 12.8327 11.4091 13.0706 11.4091C13.3085 11.4091 13.5367 11.5036 13.7049 11.6718C13.8731 11.84 13.9676 12.0682 13.9676 12.3061ZM9.50485 16.2097C9.6232 16.2097 9.74038 16.1863 9.84972 16.1411C9.95906 16.0958 10.0584 16.0294 10.1421 15.9457C10.2258 15.862 10.2922 15.7627 10.3374 15.6533C10.3827 15.544 10.406 15.4268 10.406 15.3085C10.406 15.1901 10.3827 15.0729 10.3374 14.9636C10.2922 14.8542 10.2258 14.7549 10.1421 14.6712C10.0584 14.5875 9.95906 14.5211 9.84972 14.4759C9.74038 14.4306 9.6232 14.4073 9.50485 14.4073C9.26584 14.4073 9.03661 14.5022 8.8676 14.6712C8.6986 14.8402 8.60365 15.0694 8.60365 15.3085C8.60365 15.5475 8.6986 15.7767 8.8676 15.9457C9.03661 16.1147 9.26584 16.2097 9.50485 16.2097ZM5.30005 4.74726C5.30005 3.43326 6.37405 2.32086 7.73605 2.40486C13.0724 2.73366 17.7524 4.52886 21.4184 8.02926C22.4588 9.02166 22.2536 10.6429 21.1748 11.4709C19.4961 12.7668 17.806 14.0481 16.1048 15.3145V17.4025C16.1048 18.2629 15.4388 19.2025 14.3048 19.2025C14.0876 19.2025 13.8872 19.1665 13.7072 19.1065V19.2061C13.7072 20.0617 13.04 20.9953 11.9036 20.9953C10.9988 20.9953 10.4024 20.4001 10.1924 19.7353C9.53485 20.2273 8.81605 20.7625 8.17405 21.2401C6.98605 22.1245 5.30005 21.2761 5.30005 19.8001V4.74726ZM13.706 17.4025C13.706 17.7133 13.94 18.0025 14.3048 18.0025C14.6708 18.0025 14.9048 17.7109 14.9048 17.4025V15.0097C14.9049 14.9151 14.9274 14.8219 14.9703 14.7376C15.0133 14.6534 15.0756 14.5805 15.152 14.5249C16.088 13.8457 17.6816 12.6349 19.0928 11.5561C15.8612 8.48046 11.3312 6.65526 6.50005 6.61686V19.7989C6.50038 19.9099 6.53151 20.0186 6.58997 20.113C6.64843 20.2074 6.73193 20.2837 6.83118 20.3335C6.93043 20.3832 7.04154 20.4044 7.15214 20.3948C7.26274 20.3852 7.3685 20.345 7.45765 20.2789C8.40085 19.5757 9.51325 18.7477 10.3484 18.1213C10.4376 18.0544 10.5436 18.0137 10.6546 18.0037C10.7655 17.9937 10.8771 18.0148 10.9768 18.0646C11.0764 18.1144 11.1603 18.191 11.2188 18.2858C11.2774 18.3806 11.3084 18.4898 11.3084 18.6013V19.2061C11.3084 19.5025 11.5364 19.7965 11.9036 19.7965C11.9823 19.7984 12.0605 19.7845 12.1336 19.7557C12.2068 19.7268 12.2735 19.6836 12.3296 19.6286C12.3858 19.5735 12.4304 19.5078 12.4607 19.4352C12.491 19.3626 12.5064 19.2847 12.506 19.2061V17.4025C12.506 17.2433 12.5693 17.0907 12.6818 16.9782C12.7943 16.8657 12.9469 16.8025 13.106 16.8025C13.2652 16.8025 13.4178 16.8657 13.5303 16.9782C13.6428 17.0907 13.706 17.2433 13.706 17.4025ZM20.4428 10.5205C21.0008 10.0921 21.0428 9.32886 20.5892 8.89566C17.1608 5.62326 12.7652 3.91566 7.66285 3.60126C7.04005 3.56286 6.50005 4.07406 6.50005 4.74726V5.41686C11.6924 5.45646 16.5824 7.44126 20.0564 10.8169L20.4428 10.5205Z"></path>
    </svg>