<svg xmlns:xlink="http://www.w3.org/1999/xlink" width="25" height="24" viewBox="0 0 25 24" xmlns="http://www.w3.org/2000/svg" class="m-0">
        <path d="M7.70007 6.00005C7.70007 5.68179 7.8265 5.37656 8.05155 5.15152C8.27659 4.92648 8.58181 4.80005 8.90007 4.80005H16.1001C16.4183 4.80005 16.7236 4.92648 16.9486 5.15152C17.1736 5.37656 17.3001 5.68179 17.3001 6.00005V7.20005C17.3001 7.51831 17.1736 7.82353 16.9486 8.04858C16.7236 8.27362 16.4183 8.40005 16.1001 8.40005H8.90007C8.58181 8.40005 8.27659 8.27362 8.05155 8.04858C7.8265 7.82353 7.70007 7.51831 7.70007 7.20005V6.00005ZM8.90007 6.00005V7.20005H16.1001V6.00005H8.90007Z" fill="#033FFF"></path>
        <path d="M5.30005 4.80002V19.2C5.30005 19.8365 5.55291 20.447 6.00299 20.8971C6.45308 21.3472 7.06353 21.6 7.70005 21.6H19.1C19.2592 21.6 19.4118 21.5368 19.5243 21.4243C19.6368 21.3118 19.7 21.1592 19.7 21C19.7 20.8409 19.6368 20.6883 19.5243 20.5758C19.4118 20.4632 19.2592 20.4 19.1 20.4H7.70005C7.38179 20.4 7.07656 20.2736 6.85152 20.0486C6.62648 19.8235 6.50005 19.5183 6.50005 19.2H18.5C18.8183 19.2 19.1235 19.0736 19.3486 18.8485C19.5736 18.6235 19.7 18.3183 19.7 18V4.80002C19.7 4.1635 19.4472 3.55306 18.9971 3.10297C18.547 2.65288 17.9366 2.40002 17.3 2.40002H7.70005C7.06353 2.40002 6.45308 2.65288 6.00299 3.10297C5.55291 3.55306 5.30005 4.1635 5.30005 4.80002ZM17.3 3.60002C17.6183 3.60002 17.9235 3.72645 18.1486 3.9515C18.3736 4.17654 18.5 4.48176 18.5 4.80002V18H6.50005V4.80002C6.50005 4.48176 6.62648 4.17654 6.85152 3.9515C7.07656 3.72645 7.38179 3.60002 7.70005 3.60002H17.3Z"></path>
    </svg>